<?xml version="1.0" standalone="no"?><!DOCTYPE svg PUBLIC "-//W3C//DTD SVG 1.1//EN" "http://www.w3.org/Graphics/SVG/1.1/DTD/svg11.dtd"><svg t="1631606922425" class="icon" viewBox="0 0 1024 1024" version="1.1" xmlns="http://www.w3.org/2000/svg" p-id="10990" xmlns:xlink="http://www.w3.org/1999/xlink" width="200" height="200"><defs><style type="text/css"></style></defs><path d="M384.2 475.2c-60.7-42.4-96.7-111.4-96.5-185 0-124.3 100.3-225.1 224.2-225.1S736 166 736 290.1c0 124.2-100.3 225.1-224.2 225.1-150.9 0-273.4 123.3-273.4 275.6 0 11.6-6.3 22.3-16.4 28.1-10.2 5.8-22.7 5.8-32.8 0-10.2-5.8-16.4-16.5-16.4-28.1 0-142.6 87.3-264.9 211.4-315.6z m127.6-24.9c87.5 0 158.6-71.6 158.6-160.1s-71.1-160.1-158.6-160.1-158.6 71.5-158.6 160.1 71.2 160.1 158.6 160.1z m339.1 340.6c0 11.6-6.3 22.3-16.4 28.1-10.2 5.8-22.7 5.8-32.8 0-10.2-5.8-16.4-16.5-16.4-28.1 0.2-69.6-26.1-136.8-73.6-188.1-7.9-8.6-10.7-20.6-7.1-31.7 3.5-11.1 12.7-19.5 24.2-22 11.4-2.5 23.4 1.2 31.3 9.7 58.5 63.3 91 146.2 90.8 232.1z" fill="#ffffff" p-id="10991"></path></svg>
