<?xml version="1.0" encoding="UTF-8"?>
<svg width="20px" height="20px" viewBox="0 0 20 20" version="1.1" xmlns="http://www.w3.org/2000/svg" xmlns:xlink="http://www.w3.org/1999/xlink">
    <title>完成</title>
    <defs>
        <filter color-interpolation-filters="auto" id="filter-1">
            <feColorMatrix in="SourceGraphic" type="matrix" values="0 0 0 0 0.039216 0 0 0 0 0.905882 0 0 0 0 0.705882 0 0 0 1.000000 0"></feColorMatrix>
        </filter>
    </defs>
    <g id="页面-1" stroke="none" stroke-width="1" fill="none" fill-rule="evenodd">
        <g id="完成" transform="translate(-536.000000, -213.000000)" filter="url(#filter-1)">
            <g transform="translate(536.000000, 213.000000)">
                <path d="M3.36013715,8.96063785 C3.36013715,8.96063785 8.88036246,11.8007538 9.12037225,11.8407554 C9.48038695,11.7207505 13.1197192,7.37009674 18.400751,3.04039621 C18.400751,3.04039621 10.2004163,14.6672653 9.60039184,15.68064 C7.94699103,13.9075064 3.36013715,8.96063785 3.36013715,8.96063785 Z M18.4208879,10.0004082 C18.4208879,14.6509381 14.6509381,18.4208879 10.0001361,18.4208879 C5.3496061,18.4208879 1.57938419,14.6509381 1.57938419,10.0004082 C1.57938419,5.34987823 5.3496061,1.57965631 10.0001361,1.57965631 C11.122903,1.57965631 12.8802536,1.88007674 13.1202634,1.92007837 C13.5202797,1.88007674 13.8536267,0.71431487 13.1735989,0.514306706 C12.8135842,0.314298543 11.0899765,0 10.0001361,0 C8.65069322,0 7.3409799,0.264500592 6.10718804,0.786426657 C4.91611902,1.29012069 3.84695974,2.01096643 2.92882702,2.92882703 C2.01096643,3.84668762 1.29012068,4.91584691 0.786426656,6.10691593 C0.264500592,7.34070778 0,8.65042111 0,9.99986394 C0,11.3493068 0.264500592,12.6590201 0.786426656,13.892812 C1.29012068,15.083881 2.01096643,16.1530403 2.92882702,17.071173 C3.84668762,17.9890336 4.91611902,18.7098793 6.10718804,19.2135733 C7.3409799,19.7354994 8.65069322,20 10.0001361,20 C11.3495789,20 12.6592922,19.7354994 13.8930841,19.2135733 C15.0841531,18.7098793 16.1533124,17.9890336 17.071173,17.071173 C17.9890335,16.1533124 18.7098793,15.0841531 19.2135733,13.8930841 C19.7354994,12.6592922 20,11.3493068 20,10.0001361 C20,9.53780426 20.0002721,9.1481285 19.906935,8.62810727 C20,8.34809584 18.9199559,7.92005116 18.3999347,8.64008055 C18.2502687,8.84852443 18.4208879,7.96250187 18.4208879,10.0004082 Z" id="形状" fill="#000000" fill-rule="nonzero"></path>
            </g>
        </g>
    </g>
</svg>