<?xml version="1.0" standalone="no"?><!DOCTYPE svg PUBLIC "-//W3C//DTD SVG 1.1//EN" "http://www.w3.org/Graphics/SVG/1.1/DTD/svg11.dtd"><svg t="1631606538559" class="icon" viewBox="0 0 1024 1024" version="1.1" xmlns="http://www.w3.org/2000/svg" p-id="3675" xmlns:xlink="http://www.w3.org/1999/xlink" width="200" height="200"><defs><style type="text/css"></style></defs><path d="M960 808.882V64.445c-3-0.156-6.145-0.406-8.926-0.406-210.26 0-548.538-0.125-758.799 0.25-13.908 0.031-28.333 2.125-41.6 6.157-53.413 16.283-86.776 63.133-86.792 120.421-0.063 240.343-0.032 405.676-0.016 646.019 0 3.063 0.031 6.126 0.125 9.22 1.344 43.006 16.924 89.465 52.116 116.594 24.738 19.095 53.179 28.3 84.714 28.3H959v-3.689c1 0.063 1 0.063 1 0.125v-68.29c-19-11.095-32.004-31.504-32.004-55.132S941 819.978 960 808.882zM881.735 928H191.899c-35.348 0-64.008-28.652-64.008-64s28.66-64 64.008-64h689.836c-10.986 19-17.753 40.559-17.753 64 0 23.439 6.767 45 17.753 64zM896 736h-11.718c-175.662 0-479.333 0.046-654.996-0.329-35.098-0.063-70.286-0.267-102.286 20.799v-11.627c0-199.806 0.398-353.606-0.445-553.413-0.141-34.691 23.991-65.594 67.122-65.469 188.241 0.469 504.488 0.039 692.715 0.039H896v610z" p-id="3676"></path><path d="M256 256h512v64H256v-64zM256 480h512v64H256v-64z" p-id="3677"></path></svg>