<?xml version="1.0" encoding="UTF-8"?>
<svg width="20px" height="20px" viewBox="0 0 20 20" version="1.1" xmlns="http://www.w3.org/2000/svg" xmlns:xlink="http://www.w3.org/1999/xlink">
    <title>流程</title>
    <defs>
        <filter color-interpolation-filters="auto" id="filter-1">
            <feColorMatrix in="SourceGraphic" type="matrix" values="0 0 0 0 0.396078 0 0 0 0 0.513725 0 0 0 0 1.000000 0 0 0 1.000000 0"></feColorMatrix>
        </filter>
    </defs>
    <g id="页面-1" stroke="none" stroke-width="1" fill="none" fill-rule="evenodd">
        <g id="流程" transform="translate(-1234.000000, -223.000000)" filter="url(#filter-1)">
            <g transform="translate(1234.000000, 223.000000)">
                <path d="M15.4684604,9.21876759 L4.53153958,9.21876759 C3.23719074,9.21876759 2.18791369,8.16945859 2.18791369,6.87507035 C2.18791369,5.58068211 3.23719074,4.53137311 4.53153958,4.53137311 L12.5826757,4.53137311 C12.9824485,6.40823475 14.7346092,7.68042738 16.6429634,7.47942928 C18.5513175,7.27843117 20,5.66910856 20,3.7501407 C20,1.83117285 18.5513175,0.221850231 16.6429634,0.0208521248 C14.7346092,-0.180145982 12.9824485,1.09204665 12.5826757,2.96890829 L4.53153958,2.96890829 C2.37429151,2.96890829 0.625496425,4.71775661 0.625496425,6.87507035 C0.625496425,9.03238409 2.37429151,10.7812324 4.53153958,10.7812324 L15.4684604,10.7812324 C16.7628092,10.7812324 17.8120863,11.8305414 17.8120863,13.1249296 C17.8120863,14.4193179 16.7628092,15.4686269 15.4684604,15.4686269 L7.41732427,15.4686269 C7.01755147,13.5917653 5.26539082,12.3195726 3.35703665,12.5205707 C1.44868247,12.7215688 0,14.3308914 0,16.2498593 C0,18.1688272 1.44868247,19.7781498 3.35703665,19.9791479 C5.26539082,20.180146 7.01755147,18.9079533 7.41732427,17.0310917 L15.4684604,17.0310917 C17.6257085,17.0310917 19.3745036,15.2822434 19.3745036,13.1249296 C19.3745036,10.9676159 17.6257085,9.21876759 15.4684604,9.21876759 L15.4684604,9.21876759 Z M16.249669,1.56268995 C17.4577279,1.56268995 18.4370532,2.54204501 18.4370532,3.7501407 C18.4370532,4.95823639 17.4577279,5.93759146 16.249669,5.93759146 C15.0416101,5.93759146 14.0622849,4.95823639 14.0622849,3.7501407 C14.0622849,2.54204501 15.0416101,1.56268995 16.249669,1.56268995 Z M3.75033095,18.4373101 C2.54227203,18.4373101 1.56294678,17.457955 1.56294678,16.2498593 C1.56294678,15.0417636 2.54227203,14.0624085 3.75033095,14.0624085 C4.95838986,14.0624085 5.93771511,15.0417636 5.93771511,16.2498593 C5.93771511,16.8300073 5.70725923,17.386394 5.29704512,17.7966206 C4.88683102,18.2068472 4.3304613,18.4373101 3.75033095,18.4373101 Z" id="形状" fill="#000000" fill-rule="nonzero"></path>
            </g>
        </g>
    </g>
</svg>