<?xml version="1.0" encoding="UTF-8"?>
<svg width="18px" height="20px" viewBox="0 0 18 20" version="1.1" xmlns="http://www.w3.org/2000/svg" xmlns:xlink="http://www.w3.org/1999/xlink">
    <title>超时</title>
    <defs>
        <filter color-interpolation-filters="auto" id="filter-1">
            <feColorMatrix in="SourceGraphic" type="matrix" values="0 0 0 0 0.886275 0 0 0 0 0.160784 0 0 0 0 0.172549 0 0 0 1.000000 0"></feColorMatrix>
        </filter>
    </defs>
    <g id="页面-1" stroke="none" stroke-width="1" fill="none" fill-rule="evenodd">
        <g id="超时" transform="translate(-1357.000000, -211.000000)" filter="url(#filter-1)">
            <g transform="translate(1357.000000, 211.000000)">
                <path d="M1.59098847,8.74816833 C1.59098847,4.79456293 4.79620665,1.58953249 8.75004366,1.58953249 C12.7038807,1.58953249 15.9090988,4.79456293 15.9090988,8.74816833 C15.9090988,9.18745782 16.2652342,9.54357231 16.7045494,9.54357231 C17.1438646,9.54357231 17.5,9.18745782 17.5,8.74816833 C17.4991043,4.84680044 14.9151444,1.4174131 11.1651044,0.340603186 C7.41506437,-0.736206729 3.40515052,0.799774521 1.33430703,4.10625027 C-0.736536458,7.41272602 -0.367885199,11.6906783 2.23810097,14.5941769 C4.84408713,17.4976755 9.05766529,18.3250828 12.5682064,16.6226678 C12.8239748,16.4987694 12.9942118,16.2478398 13.0147906,15.9644017 C13.0353694,15.6809636 12.9031637,15.4080779 12.6679741,15.2485381 C12.4327845,15.0889983 12.1303419,15.0670422 11.8745735,15.1909406 C9.65563391,16.2672479 7.0389054,16.1257262 4.94900512,14.8163821 C2.85910483,13.507038 1.59032552,11.2142488 1.59098847,8.74816833 Z" id="路径" fill="#000000" fill-rule="nonzero"></path>
                <path d="M8.00963474,5.81124932 C8.00963474,5.36320869 7.61572729,5 7.12981783,5 C6.64390836,5 6.25000045,5.36320869 6.25000045,5.81124932 L6.25000045,10.0621958 C6.24968621,10.3482921 6.4128275,10.613389 6.67935156,10.7598702 L10.2654853,12.7312061 C10.5354933,12.8795998 10.8708494,12.8838999 11.1452282,12.7424865 C11.419607,12.6010732 11.5913237,12.3354304 11.5956945,12.0456233 C11.6000652,11.7558162 11.4364259,11.4858734 11.1664178,11.3374797 L8.00963474,9.60140617 L8.00963474,5.81124932 Z M15.3701831,11.8875068 C15.8560925,11.8875068 16.25,12.2507155 16.25,12.6987561 L16.25,16.7550027 C16.25,17.2030433 15.8560925,17.566252 15.3701831,17.566252 C14.8842736,17.566252 14.4903662,17.2030433 14.4903662,16.7550027 L14.4903662,12.6987561 C14.4903662,12.2507155 14.8842736,11.8875068 15.3701831,11.8875068 Z M15.3701831,20 C15.8560925,20 16.25,19.6367913 16.25,19.1887507 C16.25,18.74071 15.8560925,18.3775014 15.3701831,18.3775014 C14.8842736,18.3775014 14.4903662,18.74071 14.4903662,19.1887507 C14.4903662,19.6367913 14.8842736,20 15.3701831,20 Z" id="形状" fill="#000000" fill-rule="nonzero"></path>
            </g>
        </g>
    </g>
</svg>