<?xml version="1.0" encoding="UTF-8"?>
<svg width="20px" height="17px" viewBox="0 0 20 17" version="1.1" xmlns="http://www.w3.org/2000/svg" xmlns:xlink="http://www.w3.org/1999/xlink">
    <title>人数</title>
    <defs>
        <filter color-interpolation-filters="auto" id="filter-1">
            <feColorMatrix in="SourceGraphic" type="matrix" values="0 0 0 0 0.003922 0 0 0 0 0.815686 0 0 0 0 0.627451 0 0 0 1.000000 0"></feColorMatrix>
        </filter>
    </defs>
    <g id="页面-1" stroke="none" stroke-width="1" fill="none" fill-rule="evenodd">
        <g id="人数" transform="translate(-1573.000000, -215.000000)" filter="url(#filter-1)">
            <g transform="translate(1573.000000, 215.000000)">
                <path d="M8.2352614,9.41176471 C5.64045201,9.41176471 3.52941176,7.30070754 3.52941176,4.70586054 C3.52941176,2.11105716 5.64045201,0 8.23528321,0 C10.8301144,0 12.9411765,2.11105716 12.9411765,4.70586054 C12.9411765,7.30068573 10.8301144,9.41176471 8.23528321,9.41176471 L8.2352614,9.41176471 Z M8.2352614,1.24733679 C6.32823255,1.24733679 4.77675145,2.7988143 4.77675145,4.70583873 C4.77675145,6.61290679 6.32823255,8.16438429 8.23528321,8.16438429 C10.1423339,8.16438429 11.693815,6.61288498 11.693815,4.70583873 C11.693815,2.7988143 10.1423121,1.24733679 8.23528321,1.24733679 L8.2352614,1.24733679 Z" id="形状" fill="#000000" fill-rule="nonzero"></path>
                <path d="M14.5775991,16.4705882 C14.2247419,16.4705882 13.9387297,16.1888769 13.9387297,15.8413478 C13.9387297,12.40318 11.0988706,9.60604745 7.60823426,9.60604745 C4.11759791,9.60604745 1.27769417,12.40318 1.27769417,15.8413478 C1.27769417,16.1888989 0.991681918,16.4705882 0.638847086,16.4705882 C0.286012254,16.4705882 0,16.1888769 0,15.8413478 C0,14.8299861 0.201249678,13.8485075 0.59814139,12.9242206 C0.981382617,12.0317753 1.52985948,11.2304317 2.2284023,10.5424153 C2.92694512,9.85439881 3.74052286,9.31416969 4.64657089,8.93669146 C5.58494667,8.54574602 6.58140961,8.34752264 7.60823426,8.34752264 C8.63505891,8.34752264 9.63149951,8.54574602 10.5698976,8.93669146 C11.475968,9.31416969 12.2895457,9.85439881 12.9880662,10.5424153 C13.6865867,11.2304537 14.2350636,12.0317973 14.6183048,12.9242206 C15.0152188,13.8485075 15.2164685,14.8299641 15.2164685,15.8413478 C15.2164685,16.1888989 14.9304116,16.4705882 14.5775991,16.4705882 L14.5775991,16.4705882 Z M13.4171293,9.50907027 C13.0642721,9.50907027 12.7782599,9.22735894 12.7782599,8.87982987 C12.7782599,8.5323008 13.0642944,8.25058947 13.4171293,8.25058947 C15.044955,8.25058947 16.36932,6.94616168 16.36932,5.34277043 C16.36932,3.73937918 15.044955,2.4349734 13.4171293,2.4349734 C13.0642721,2.4349734 12.7782599,2.15324006 12.7782599,1.80571099 C12.7782599,1.45818192 13.0642944,1.17647059 13.4171293,1.17647059 C15.7495076,1.17647059 17.6470588,3.04546532 17.6470588,5.34279244 C17.6470588,7.64011955 15.7495076,9.50907027 13.4171293,9.50907027 Z" id="形状" fill="#000000" fill-rule="nonzero"></path>
                <path d="M19.3790964,15.2941176 C19.0361501,15.2941176 18.7581929,15.016117 18.7581929,14.6731924 C18.7581929,11.8080682 16.427226,9.47710126 13.5621018,9.47710126 C13.2191554,9.47710126 12.9411765,9.19912233 12.9411765,8.85619769 C12.9411765,8.51327305 13.2191771,8.23529412 13.5621018,8.23529412 C15.2817191,8.23529412 16.8984135,8.90494497 18.1143813,10.1209128 C19.3303491,11.3368806 20,12.953575 20,14.6731924 C20,15.016117 19.7220428,15.2941176 19.3790964,15.2941176 Z" id="路径" fill="#000000" fill-rule="nonzero"></path>
            </g>
        </g>
    </g>
</svg>