<?xml version="1.0" encoding="UTF-8"?>
<svg width="16px" height="16px" viewBox="0 0 16 16" version="1.1" xmlns="http://www.w3.org/2000/svg" xmlns:xlink="http://www.w3.org/1999/xlink">
    <title>统计</title>
    <defs>
        <filter color-interpolation-filters="auto" id="filter-1">
            <feColorMatrix in="SourceGraphic" type="matrix" values="0 0 0 0 0.337255 0 0 0 0 0.596078 0 0 0 0 0.996078 0 0 0 1.000000 0"></feColorMatrix>
        </filter>
    </defs>
    <g id="页面-1" stroke="none" stroke-width="1" fill="none" fill-rule="evenodd">
        <g id="统计" transform="translate(-400.000000, -462.000000)" filter="url(#filter-1)">
            <g transform="translate(400.000000, 462.000000)">
                <path d="M3.91171477,16 L0.407470289,16 C0.190152801,16 0,15.8101695 0,15.5932203 L0,9.49152542 C0,9.27457627 0.190152801,9.08474576 0.407470289,9.08474576 L3.91171477,9.08474576 C4.12903226,9.08474576 4.31918506,9.27457627 4.31918506,9.49152542 L4.31918506,15.5932203 C4.31918506,15.8101695 4.12903226,16 3.91171477,16 Z M9.72495756,15.9186441 L6.11205433,15.9186441 C5.89473684,15.9186441 5.70458404,15.7288136 5.70458404,15.5118644 L5.70458404,0.406779661 C5.70458404,0.189830508 5.89473684,0 6.11205433,0 L9.72495756,0 C9.94227504,0 10.1324278,0.189830508 10.1324278,0.406779661 L10.1324278,15.5118644 C10.1324278,15.7288136 9.94227504,15.9186441 9.72495756,15.9186441 L9.72495756,15.9186441 Z M15.565365,15.9186441 L12.1426146,15.9186441 C11.9252971,15.9186441 11.7351443,15.7288136 11.7351443,15.5118644 L11.7351443,5.69491525 C11.7351443,5.4779661 11.9252971,5.28813559 12.1426146,5.28813559 L15.5925297,5.28813559 C15.8098472,5.28813559 16,5.4779661 16,5.69491525 L16,15.5118644 C15.9728353,15.7288136 15.7826825,15.9186441 15.565365,15.9186441 L15.565365,15.9186441 Z" id="形状" fill="#000000" fill-rule="nonzero"></path>
            </g>
        </g>
    </g>
</svg>