<?xml version="1.0" encoding="UTF-8"?>
<svg width="20px" height="19px" viewBox="0 0 20 19" version="1.1" xmlns="http://www.w3.org/2000/svg" xmlns:xlink="http://www.w3.org/1999/xlink">
    <title>模板</title>
    <defs>
        <filter color-interpolation-filters="auto" id="filter-1">
            <feColorMatrix in="SourceGraphic" type="matrix" values="0 0 0 0 0.337255 0 0 0 0 0.596078 0 0 0 0 0.996078 0 0 0 1.000000 0"></feColorMatrix>
        </filter>
    </defs>
    <g id="页面-1" stroke="none" stroke-width="1" fill="none" fill-rule="evenodd">
        <g id="模板" transform="translate(-312.000000, -213.000000)" filter="url(#filter-1)">
            <g transform="translate(312.000000, 213.000000)">
                <path d="M19.7560976,3.99161426 C19.8908012,3.99161426 20,4.09673817 20,4.22641509 L20,18.4318658 C20,18.5615428 19.8908012,18.6666667 19.7560976,18.6666667 L11.4634146,18.6666667 C11.328711,18.6666667 11.2195122,18.5615428 11.2195122,18.4318658 L11.2195122,4.22641509 C11.2195122,4.09673817 11.328711,3.99161426 11.4634146,3.99161426 L19.7560976,3.99161426 L19.7560976,3.99161426 Z M8.53658537,17.0230608 C8.67128896,17.0230608 8.7804878,17.1281847 8.7804878,17.2578616 L8.7804878,18.4318658 C8.7804878,18.5615428 8.67128896,18.6666667 8.53658537,18.6666667 L0.243902439,18.6666667 C0.109198842,18.6666667 0,18.5615428 0,18.4318658 L0,17.2578616 C0,17.1281847 0.109198842,17.0230608 0.243902439,17.0230608 L8.53658537,17.0230608 L8.53658537,17.0230608 Z M18.2926829,5.63522013 L12.9268293,5.63522013 L12.9268293,17.0230608 L18.2926829,17.0230608 L18.2926829,5.63522013 Z M8.53658537,0 C8.67128896,0 8.7804878,0.105123916 8.7804878,0.234800839 L8.7804878,14.4402516 C8.7804878,14.5699285 8.67128896,14.6750524 8.53658537,14.6750524 L0.243902439,14.6750524 C0.109198842,14.6750524 0,14.5699285 0,14.4402516 L0,0.234800839 C0,0.105123916 0.109198842,0 0.243902439,0 L8.53658537,0 L8.53658537,0 Z M7.07317073,1.64360587 L1.70731707,1.64360587 L1.70731707,13.0314465 L7.07317073,13.0314465 L7.07317073,1.64360587 Z M19.7560976,0 C19.8908012,0 20,0.105123916 20,0.234800839 L20,1.40880503 C20,1.47107809 19.9743032,1.5308006 19.9285626,1.5748343 C19.882822,1.618868 19.8207845,1.64360587 19.7560976,1.64360587 L11.4634146,1.64360587 C11.328711,1.64360587 11.2195122,1.53848195 11.2195122,1.40880503 L11.2195122,0.234800839 C11.2195122,0.105123916 11.328711,0 11.4634146,0 L19.7560976,0 L19.7560976,0 Z" id="形状" fill="#666666" fill-rule="nonzero"></path>
            </g>
        </g>
    </g>
</svg>