<?xml version="1.0" encoding="UTF-8"?>
<svg width="18px" height="20px" viewBox="0 0 18 20" version="1.1" xmlns="http://www.w3.org/2000/svg" xmlns:xlink="http://www.w3.org/1999/xlink">
    <title>耗时</title>
    <defs>
        <filter color-interpolation-filters="auto" id="filter-1">
            <feColorMatrix in="SourceGraphic" type="matrix" values="0 0 0 0 1.000000 0 0 0 0 0.572549 0 0 0 0 0.000000 0 0 0 1.000000 0"></feColorMatrix>
        </filter>
    </defs>
    <g id="页面-1" stroke="none" stroke-width="1" fill="none" fill-rule="evenodd">
        <g id="耗时" transform="translate(-315.000000, -324.000000)" filter="url(#filter-1)">
            <g transform="translate(315.000000, 324.000000)">
                <path d="M14.7333333,5.5 C14.7333333,5.625 14.7333333,5.75 14.6095238,5.875 C14.1142857,8.5 11.6380952,10.625 8.66666667,10.625 C5.2,10.625 2.47619048,7.875 2.47619048,4.375 L2.47619048,1.25 L0.619047619,1.25 C0.247619048,1.25 0,1 0,0.625 C0,0.25 0.247619048,0 0.619047619,0 L16.7142857,0 C17.0857143,0 17.3333333,0.25 17.3333333,0.625 C17.3333333,1 17.0857143,1.25 16.7142857,1.25 L14.8571429,1.25 L14.8571429,4.375 C14.8571429,4.75 14.8571429,5.125 14.7333333,5.5 Z M3.71428571,4.5 C4.20952381,4.375 4.82857143,4.375 5.6952381,4.375 C6.56190476,4.5 7.18095238,4.75 8.04761905,5.25 C8.17142857,5.375 8.17142857,5.375 8.2952381,5.375 C8.91428571,5.875 9.28571429,6.125 9.9047619,6.125 C10.8952381,6.125 12.1333333,5.75 13.6190476,5.125 L13.6190476,1.25 L3.71428571,1.25 L3.71428571,4.5 C3.71428571,4.375 3.71428571,4.5 3.71428571,4.5 Z M3.96190476,5.75 C4.58095238,7.875 6.43809524,9.375 8.66666667,9.375 C10.5238095,9.375 12.2571429,8.25 13.1238095,6.625 C11.8857143,7.125 10.8952381,7.375 9.9047619,7.375 C9.03809524,7.375 8.41904762,7.125 7.55238095,6.625 C7.42857143,6.5 7.42857143,6.5 7.42857143,6.375 C6.68571429,5.875 6.19047619,5.75 5.57142857,5.625 C4.7047619,5.625 4.08571429,5.625 3.96190476,5.75 Z M9.28571429,10.625 L9.28571429,11.25 C9.28571429,11.625 9.03809524,11.875 8.66666667,11.875 C8.2952381,11.875 8.04761905,11.625 8.04761905,11.25 L8.04761905,10.625 C5.94285714,10.875 4.33333333,12.375 3.83809524,14.375 C4.33333333,14.25 4.95238095,14.25 5.6952381,14.375 C6.56190476,14.5 7.18095238,14.625 8.17142857,15.25 C9.03809524,15.75 9.53333333,15.875 10.2761905,16 C11.3904762,16.125 12.5047619,15.625 13.4952381,14.75 C13.1238095,12.625 11.3904762,10.875 9.28571429,10.625 L9.28571429,10.625 Z M2.47619048,15.5 C2.47619048,15.5 2.47619048,15.375 2.47619048,15.5 C2.6,12 5.32380952,9.375 8.66666667,9.375 C12.1333333,9.375 14.8571429,12.125 14.8571429,15.625 L14.8571429,18.75 L16.7142857,18.75 C17.0857143,18.75 17.3333333,19 17.3333333,19.375 C17.3333333,19.75 17.0857143,20 16.7142857,20 L0.619047619,20 C0.247619048,20 0,19.75 0,19.375 C0,19 0.247619048,18.75 0.619047619,18.75 L2.47619048,18.75 L2.47619048,15.5 C2.47619048,15.625 2.47619048,15.5 2.47619048,15.5 Z M13.6190476,16.25 C12.5047619,17 11.3904762,17.375 10.152381,17.25 C9.16190476,17.125 8.66666667,17 7.55238095,16.375 C6.68571429,15.875 6.19047619,15.75 5.57142857,15.625 C4.7047619,15.5 3.96190476,15.625 3.71428571,15.75 L3.71428571,18.75 L13.6190476,18.75 L13.6190476,16.25 Z M8.66666667,12.5 C9.03809524,12.5 9.28571429,12.75 9.28571429,13.125 C9.28571429,13.5 9.03809524,13.75 8.66666667,13.75 C8.2952381,13.75 8.04761905,13.5 8.04761905,13.125 C8.04761905,12.75 8.2952381,12.5 8.66666667,12.5 Z" id="形状" fill="#000000" fill-rule="nonzero"></path>
            </g>
        </g>
    </g>
</svg>
