<?xml version="1.0" encoding="UTF-8"?>
<svg width="16px" height="16px" viewBox="0 0 16 16" version="1.1" xmlns="http://www.w3.org/2000/svg" xmlns:xlink="http://www.w3.org/1999/xlink">
    <title>耗时</title>
    <defs>
        <filter color-interpolation-filters="auto" id="filter-1">
            <feColorMatrix in="SourceGraphic" type="matrix" values="0 0 0 0 0.058824 0 0 0 0 0.333333 0 0 0 0 0.980392 0 0 0 1.000000 0"></feColorMatrix>
        </filter>
    </defs>
    <g id="页面-1" stroke="none" stroke-width="1" fill="none" fill-rule="evenodd">
        <g id="效能词典-指标" transform="translate(-694.000000, -461.000000)">
            <g id="编组-7备份" transform="translate(224.000000, 94.000000)">
                <g id="耗时" transform="translate(470.000000, 364.000000)" filter="url(#filter-1)">
                    <g transform="translate(0.000000, 3.000000)">
                        <path d="M14.8160955,0.809066908 L1.25342247,0.809066908 C0.974768711,0.809066908 0.74887521,0.627951111 0.74887521,0.404533454 C0.74887521,0.181115796 0.974768711,0 1.25342247,0 L14.8145138,0 C15.0928071,0.000696187673 15.3181928,0.181404797 15.3191876,0.404533446 C15.3221039,0.512330649 15.2701432,0.616454122 15.1751991,0.692817372 C15.0802549,0.769180621 14.9505525,0.811168066 14.8160955,0.809066908 Z M15.4867163,15.9987274 L0.597036551,15.9987274 C0.389272755,16.0113286 0.190201466,15.9295956 0.081514914,15.7870688 C-0.027171638,15.644542 -0.027171638,15.4652217 0.081514914,15.322695 C0.190201466,15.1801682 0.389272755,15.0984352 0.597036551,15.1110364 L15.4867163,15.1110364 C15.7762513,15.1285972 16,15.3220766 16,15.5548819 C16,15.7876871 15.7762513,15.9811666 15.4867163,15.9987274 L15.4867163,15.9987274 Z" id="形状" fill="#8A8A8A" fill-rule="nonzero"></path>
                        <path d="M13.09307,11.2086049 L13.0765657,11.1812255 C12.3798654,10.0896641 11.3161632,9.20901639 10.0277734,8.65710561 C11.3095206,8.09696429 12.3707261,7.2183837 13.0765657,6.13298565 L13.09307,6.10560625 C14.0490161,4.53209619 14.547625,2.77931451 14.5454545,1 L13.6077037,1 C13.6181166,2.63826839 13.1635918,4.2535034 12.2843598,5.70273794 L12.2678555,5.71707952 C11.6127726,6.9223293 10.4208772,7.84364144 8.96699774,8.26857888 L8.90398137,8.28292046 L8.88747708,8.28292046 C8.85596889,8.29726205 8.83946459,8.31029986 8.80795641,8.32464146 L8.79145213,8.33898304 L8.75994393,8.36636244 L8.72843574,8.39374185 L8.72843574,8.40808343 C8.70924891,8.42932951 8.69312501,8.45253531 8.68042328,8.47718383 L8.66391898,8.49152542 L8.6324108,8.58800521 L8.6324108,8.74054758 L8.66391898,8.83702737 L8.68042328,8.85136897 C8.69692756,8.87874836 8.71193146,8.89308996 8.72843574,8.92046936 L8.72843574,8.93481094 L8.75994393,8.96219034 L8.75994393,8.95306388 L8.79145213,8.96740548 L8.80795641,8.98174706 C8.83240637,8.99841968 8.85911159,9.01243073 8.88747708,9.02346806 L8.90398137,9.02346806 L8.96699774,9.05084745 C10.4197692,9.47731865 11.6155443,10.3915046 12.2873606,11.589309 L12.3038649,11.6166884 C12.9907419,12.7013925 13.4001639,13.9021228 13.5041768,15.136897 C11.8833202,14.3574585 10.0379898,14.0011708 8.18979577,14.1108214 L8.18979577,7.69621902 C8.22130395,7.69621902 8.23780825,7.68187744 8.26931644,7.66883962 L8.26931644,7.65449804 L8.39834996,7.61277705 L8.42985816,7.61277705 C9.26982352,7.3905436 10.0360293,6.99615914 10.6639387,6.46284224 C11.3097925,5.89473755 11.8103356,5.21454097 12.1328205,4.46675357 C12.1778551,4.3663878 12.1744317,4.25448479 12.1233241,4.15633993 C12.0722165,4.05819508 11.9777397,3.98209473 11.8612499,3.94524119 C11.6251258,3.86523638 11.3586822,3.96363631 11.2610939,4.16688396 L11.2610939,4.18122555 C10.9854538,4.81808235 10.5615008,5.39864347 10.0157703,5.88657104 C9.50100167,6.32690934 8.86996058,6.65099561 8.17779265,6.83050847 L8.16128835,6.84485006 L8.11327589,6.85919166 L8.03375522,6.87353324 L7.98574274,6.85919166 L7.95423456,6.84485006 L7.90622208,6.83050847 C7.21718165,6.64568574 6.58799966,6.32229026 6.06974483,5.88657104 C5.51626683,5.40399294 5.09119189,4.82189555 4.8244212,4.18122555 C4.73589816,3.97512194 4.47255113,3.86972817 4.23476796,3.94524119 C3.99907882,4.02868989 3.87976082,4.25782303 3.96319738,4.46675357 C4.27932168,5.21729185 4.78068312,5.89860054 5.4320791,6.46284224 C6.0537286,6.9959522 6.81455572,7.39048275 7.6496554,7.61277705 L7.66615968,7.61277705 L7.79519322,7.65449804 L7.82670141,7.66883962 C7.84320569,7.68318121 7.85820959,7.68318121 7.88971778,7.69621902 L7.88971778,14.1043025 C6.06863766,14.0284622 4.25150808,14.3128812 2.57533672,14.9361147 C2.72746128,13.7702266 3.13488985,12.6403974 3.77564865,11.6075619 L3.79215293,11.5801825 C4.46703274,10.3794803 5.66885924,9.46480118 7.12751971,9.04172099 L7.17553219,9.01434158 L7.19203647,9.01434158 C7.22354465,9 7.24004895,8.98696218 7.27155714,8.9726206 L7.28806144,8.958279 L7.31956962,8.94393742 L7.31956962,8.92959582 L7.3510778,8.90221642 L7.3510778,8.88787482 C7.37028961,8.86664374 7.38641544,8.84343517 7.39909029,8.81877443 L7.39909029,8.80443285 C7.41721472,8.77453203 7.42794691,8.74166945 7.43059847,8.70795306 L7.43059847,8.56192958 C7.42695407,8.52836915 7.4162756,8.49567108 7.39909029,8.4654498 L7.39909029,8.45110821 C7.38640193,8.42645361 7.37027707,8.40324643 7.3510778,8.38200782 L7.3510778,8.36766622 L7.31956962,8.34028683 L7.28806144,8.31290743 L7.24004895,8.32724901 C7.20854077,8.31290743 7.19203647,8.29986961 7.16052829,8.28552803 L7.14402401,8.28552803 L7.09601152,8.27118643 C5.63172593,7.84939175 4.42774216,6.92836447 3.76064475,5.71968709 L3.74414045,5.70534549 C2.86947403,4.25275811 2.40749502,2.63939065 2.39679032,1 L1.45454545,1 C1.45473156,2.77823441 1.95321627,4.52968464 2.9069229,6.1029987 L2.92342718,6.13037809 C3.62472742,7.21884374 4.6871657,8.09844503 5.97221947,8.65449804 C4.68684126,9.21014897 3.62428095,10.0898513 2.92342718,11.178618 L2.9069229,11.2059974 C2.00700995,12.6848045 1.52171675,14.3273838 1.4905548,16 L14.5079377,16 C14.4888276,14.3269818 14.0033457,12.6829161 13.09307,11.2086049 L13.09307,11.2086049 Z" id="路径" fill="#8A8A8A" fill-rule="nonzero"></path>
                    </g>
                </g>
            </g>
        </g>
    </g>
</svg>