<?xml version="1.0" encoding="UTF-8"?>
<svg width="200px" height="118px" viewBox="0 0 200 118" version="1.1" xmlns="http://www.w3.org/2000/svg" xmlns:xlink="http://www.w3.org/1999/xlink">
    <title>无数据 </title>
    <g id="页面-1" stroke="none" stroke-width="1" fill="none" fill-rule="evenodd">
        <g id="流程效能-设计分析-无数据" transform="translate(-530.000000, -246.000000)" fill-rule="nonzero">
            <g id="无数据-" transform="translate(530.000000, 246.000000)">
                <path d="M41,71.3583441 L55.7692307,71.3583441 L55.7692307,115 L41,115 L41,71.3583441 Z M66.8377812,46.4346701 L81.607012,46.4346701 L81.607012,114.995796 L66.8377812,114.995796 L66.8377812,46.4346701 Z M138.226583,36.461837 L153,36.461837 L153,115 L138.226583,115 L138.226583,36.4576326 L138.226583,36.461837 Z M114.85034,83.820181 L129.623757,83.820181 L129.623757,114.995796 L114.85034,114.995796 L114.85034,83.820181 Z M91.4154892,24 L106.18472,24 L106.18472,114.995796 L91.4154892,114.995796 L91.4154892,24 Z" id="形状" fill="#EAF4FE"></path>
                <path d="M52.5843893,116.991658 L37.8389948,116.991658 C36.8191886,116.991658 36,116.157512 36,115.135682 L36,71.847635 C36,70.829976 36.8191886,69.9956604 37.8389948,69.9956604 L52.5843893,69.9956604 C53.0824344,69.9891529 53.5626203,70.1807722 53.9187232,70.5282982 C54.2748261,70.8758241 54.4774953,71.350613 54.4818976,71.847635 L54.4818976,115.139853 C54.4818976,115.63617 54.2812799,116.115804 53.9218401,116.453634 C53.5613754,116.797567 53.0830927,116.99146 52.5843893,116.995829 L52.5843893,116.991658 Z M39.6570919,113.279705 L50.7244969,113.279705 L50.7244969,73.699441 L39.67381,73.699441 L39.6570919,113.279705 L39.6570919,113.279705 Z M78.4013683,116.991658 L63.6559738,116.991658 C62.6361677,116.991658 61.816979,116.157512 61.816979,115.135682 L61.816979,47.1276955 C61.816979,46.1100364 62.6361677,45.2925725 63.6559738,45.2717188 L78.4013683,45.2717188 C79.4211745,45.2717188 80.2403631,46.1100363 80.2403631,47.1276955 L80.2403631,115.139853 C80.2403631,116.157512 79.4211745,116.974976 78.4013683,116.995829 L78.4013683,116.991658 Z M65.474071,113.279705 L76.5414759,113.279705 L76.5414759,48.983672 L65.490789,48.983672 L65.474071,113.288047 L65.474071,113.279705 Z M149.674955,116.991658 L134.92956,116.991658 C133.909754,116.991658 133.090565,116.157512 133.090565,115.135682 L133.090565,37.213861 C133.090565,36.196202 133.909754,35.3578845 134.92956,35.3578845 L149.674955,35.3578845 C150.694761,35.3578845 151.513994,36.196202 151.513994,37.213861 L151.513994,115.118999 C151.520957,116.142206 150.700219,116.979829 149.674955,116.995829 L149.674955,116.991658 Z M136.747657,113.279705 L147.819242,113.279705 L147.819242,39.1282278 L136.768555,39.1282278 L136.747657,113.283876 L136.747657,113.279705 Z M126.340619,116.991658 L111.586865,116.991658 C110.571238,116.991658 109.75205,116.157512 109.75205,115.135682 L109.75205,84.2096902 C109.75205,83.1920312 110.571238,82.3578844 111.591045,82.3578844 L126.336439,82.3578844 C127.356245,82.3578844 128.175434,83.1920312 128.175434,84.2096902 L128.175434,115.135682 C128.175434,116.153341 127.356245,116.970805 126.336439,116.991658 L126.340619,116.991658 Z M113.409142,113.279705 L124.476547,113.279705 L124.476547,86.0656668 L113.430039,86.0656668 L113.409142,113.283876 L113.409142,113.279705 Z M102.93941,116.991658 L88.2316313,116.991658 C87.2118251,116.991658 86.3926366,116.157512 86.3926366,115.135682 L86.3926366,24.8559765 C86.3926366,23.8383175 87.2118253,23 88.2316313,23 L102.93941,23 C103.959216,23 104.778449,23.8341468 104.778449,24.8559765 L104.778449,115.12317 C104.785412,116.146377 103.964674,116.984 102.93941,117 L102.93941,116.991658 Z M90.0079331,113.279705 L101.083697,113.279705 L101.083697,26.7077823 L90.0079331,26.7077823 L90.0079331,113.288047 L90.0079331,113.279705 Z M191.135928,91.846304 L185.008732,91.846304 C183.985063,91.8417564 183.155699,91.0159987 183.148839,89.9944982 C183.148839,88.9768391 183.984746,88.1385215 185.008732,88.1385215 L191.140108,88.1385215 C192.159914,88.1385215 193,88.9726683 193,89.9944982 C193,91.0121572 192.164093,91.846304 191.140108,91.846304 L191.135928,91.846304 Z" id="形状" fill="#5C92E8"></path>
                <path d="M188.162499,94.9999561 C187.143691,94.9999561 186.325305,94.1636755 186.325305,93.1485436 L186.325305,86.7249226 C186.33084,86.0702852 186.67916,85.4660796 187.243902,85.1314985 C187.814547,84.8128455 188.51045,84.8128455 189.081096,85.1314985 C189.661482,85.4518475 189.999693,86.0675832 189.999693,86.7249226 L189.999693,93.1485436 C190.008711,93.6386425 189.81873,94.1116046 189.472836,94.4601678 C189.126941,94.808731 188.654443,95.0033585 188.162499,94.9999561 L188.162499,94.9999561 Z M15.3910856,53.2879782 C13.6290474,53.3092983 12.029125,52.2665049 11.3427474,50.6493628 C10.6563699,49.0322207 11.0199206,47.1620563 12.2626523,45.9172223 C13.5053839,44.6723883 15.3803653,44.3002335 17.0069815,44.9755464 C18.6228772,45.6328858 19.6792639,47.2221496 19.6792639,48.952866 C19.6792639,51.3575635 17.7669117,53.2879781 15.3910856,53.2879782 L15.3910856,53.2879782 Z M15.3910856,47.1223006 C14.6390892,47.1133111 13.9582319,47.5639277 13.6749793,48.2580833 C13.3771875,48.9505446 13.534489,49.7540126 14.0716461,50.2841865 C14.6004077,50.8122423 15.3955734,50.972537 16.0887607,50.6908097 C16.781948,50.4090824 17.2377412,49.7403692 17.2449816,48.9944699 C17.2234333,47.9791488 16.4097022,47.157397 15.3910856,47.1223006 L15.3910856,47.1223006 Z M41.1619098,7.69857459 L32.5772024,7.69857459 C31.5545361,7.69403829 30.7259844,6.87033125 30.7191309,5.85136752 C30.7191309,4.83623572 31.5583946,4 32.5772024,4 L41.1619098,4 C42.1807175,4 43.0158058,4.8362356 43.0158058,5.85136752 C43.0158058,6.86649944 42.1807175,7.69857459 41.1619098,7.69857459 L41.1619098,7.69857459 Z" id="形状" fill="#5C92E8"></path>
                <path d="M36.2054577,12.8585657 C35.1873488,12.8585657 34.3695235,12.022085 34.3695235,11.0015786 L34.3695235,1.84211554 C34.3750549,1.18401218 34.7231361,0.57660763 35.2874906,0.240255118 C35.8577449,-0.0800850392 36.5531706,-0.0800850392 37.1234249,0.240255118 C37.7034132,0.562300218 38.0413969,1.18129589 38.0413969,1.84211554 L38.0413969,11.0015786 C38.0437125,12.021605 37.2230672,12.8516607 36.2054577,12.8585657 L36.2054577,12.8585657 Z M188.930151,23.7369963 C186.921914,23.7800625 185.086271,22.6040705 184.281899,20.7591253 C183.487149,18.9106268 183.882481,16.7642059 185.283318,15.3220012 C186.692938,13.8819056 188.831362,13.4391405 190.69487,14.2015284 C192.558378,14.9639163 193.776977,16.7800875 193.778686,18.7975782 C193.778686,21.4743163 191.625636,23.6951724 188.930151,23.7369963 L188.930151,23.7369963 Z M188.930151,16.3174131 C187.930566,16.3201493 187.028401,16.9186244 186.635233,17.8398078 C185.6154,18.2705397 185.008566,19.3313695 185.152874,20.431174 C185.297183,21.5309785 186.157036,22.3984527 187.253299,22.5502164 C188.349563,22.70198 189.411806,22.1005954 189.848118,21.0811703 C190.773271,20.7008905 191.379143,19.7998432 191.383627,18.7975782 C191.391814,18.1427952 191.141325,17.5113381 190.686806,17.0409688 C190.22734,16.5656631 189.594596,16.298379 188.934324,16.3006687 L188.934324,16.3174131 L188.930151,16.3174131 Z M198.151548,117.995818 L181.88684,117.995818 C180.863258,117.991237 180.034612,117.16064 180.030043,116.134648 C180.030043,115.118324 180.864558,114.277661 181.88684,114.277661 L198.143203,114.277661 C199.161312,114.277661 200,115.114142 200,116.134648 C200,117.155155 199.161312,117.995818 198.143203,117.995818 L198.151548,117.995818 Z M173.591755,117.995818 L165.930902,117.995818 C164.90732,117.991237 164.078675,117.16064 164.074105,116.134648 C164.074105,115.118324 164.912793,114.277661 165.930902,114.277661 L173.591755,114.277661 C174.617236,114.277661 175.448552,115.110935 175.448552,116.138831 C175.448552,117.166726 174.617236,118 173.591755,118 L173.591755,117.995818 Z M157.952933,117.995818 L31.6949011,117.995818 C30.6729489,117.988953 29.8468261,117.15902 29.8422765,116.134648 C29.8422765,115.118324 30.6767921,114.277661 31.6949011,114.277661 L157.952933,114.277661 C158.978414,114.277661 159.80973,115.110935 159.80973,116.138831 C159.80973,117.166726 158.978414,118 157.952933,118 L157.952933,117.995818 Z M26.1912709,117.995818 L22.6988234,117.995818 C21.6768712,117.988953 20.8507484,117.15902 20.8461988,116.134648 C20.8461988,115.118324 21.6807144,114.277661 22.6988234,114.277661 L26.1912709,114.277661 C27.2093799,114.277661 28.0480681,115.114142 28.0480681,116.134648 C28.0367879,117.157824 27.2120428,117.984511 26.1912709,117.995818 L26.1912709,117.995818 Z M14.1241759,117.995818 L1.85679708,117.995818 C0.833215108,117.991237 0.00456958579,117.16064 0,116.134648 C0,115.118324 0.834515568,114.277661 1.85262454,114.277661 L14.1200034,114.277661 C15.1381123,114.277661 15.9768004,115.114142 15.9768004,116.134648 C15.9768004,117.155155 15.1422849,117.995818 14.1241759,117.995818 L14.1241759,117.995818 Z" id="形状" fill="#5C92E8"></path>
            </g>
        </g>
    </g>
</svg>