<?xml version="1.0" encoding="UTF-8"?>
<svg width="286px" height="200px" viewBox="0 0 286 200" version="1.1" xmlns="http://www.w3.org/2000/svg" xmlns:xlink="http://www.w3.org/1999/xlink">
    <title>无信息</title>
    <defs>
        <filter color-interpolation-filters="auto" id="filter-1">
            <feColorMatrix in="SourceGraphic" type="matrix" values="0 0 0 0 0.678431 0 0 0 0 0.709804 0 0 0 0 0.741176 0 0 0 1.000000 0"></feColorMatrix>
        </filter>
    </defs>
    <g id="页面-1" stroke="none" stroke-width="1" fill="none" fill-rule="evenodd">
        <g id="无信息" transform="translate(-484.000000, -475.000000)" filter="url(#filter-1)">
            <g transform="translate(484.000000, 475.000000)">
                <path d="M72.6,48.4042855 C69.3657143,48.4042855 66.7442857,51.042857 66.7442857,54.3 L66.7442857,146.518571 C66.7442857,149.775714 69.3657143,152.414286 72.6,152.414286 L210.772857,152.414286 C214.005714,152.414286 216.627143,149.774286 216.627143,146.518571 L216.627143,54.3 C216.627143,51.0428572 214.005714,48.402857 210.772857,48.402857 L72.6,48.402857 L72.6,48.4042855 Z M72.6,46.0442855 L210.772857,46.0442855 C215.3,46.0442855 218.97,49.7399998 218.97,54.3 L218.97,146.518571 C218.97,151.077143 215.298571,154.774286 210.772857,154.774286 L72.6,154.774286 C68.0714285,154.774286 64.4028572,151.077143 64.4028572,146.517143 L64.4028572,54.3014285 C64.4028572,49.7414285 68.0728572,46.0457143 72.6,46.0457143 L72.6,46.0442855 Z" id="形状" fill="#000000" fill-rule="nonzero"></path>
                <path d="M126.44,133.225714 L99.1685715,133.225714 C94.877143,133.225714 91.4685715,130.068571 91.4685715,126.028571 L91.4685715,103.555714 C91.4685715,99.5157143 94.877143,96.3585713 99.1685715,96.3585713 L126.567143,96.3585713 C130.858571,96.3585713 134.267143,99.5157141 134.267143,103.555714 L134.267143,125.902857 C134.267143,129.942857 130.858571,133.225714 126.44,133.225714 L126.44,133.225714 Z M99.1685715,99.2614285 C96.5185715,99.2614285 94.4971428,101.155714 94.4971428,103.554286 L94.4971428,125.901429 C94.4971428,128.3 96.5185713,130.194286 99.1685715,130.194286 L126.567143,130.194286 C129.217143,130.194286 131.238571,128.3 131.238571,125.901429 L131.238571,103.555714 C131.238571,101.155714 129.217143,99.262857 126.567143,99.262857 L99.17,99.262857 L99.1685715,99.2614285 Z" id="形状" fill="#000000" fill-rule="nonzero"></path>
                <path d="M105.102857,104.312857 C104.22,104.312857 103.588571,103.681429 103.588571,102.924286 L103.588571,94.212857 C103.588571,93.3285713 104.22,92.8242855 105.102857,92.8242855 C105.987143,92.8242855 106.617143,93.4557141 106.617143,94.212857 L106.617143,102.798571 C106.617143,103.681429 105.86,104.312857 105.102857,104.312857 L105.102857,104.312857 Z M120.76,104.312857 C119.874286,104.312857 119.244286,103.681429 119.244286,102.924286 L119.244286,94.212857 C119.244286,93.3285713 119.875714,92.8242855 120.758571,92.8242855 C121.642857,92.8242855 122.272857,93.4557141 122.272857,94.212857 L122.272857,102.798571 C122.272857,103.681429 121.515714,104.312857 120.758571,104.312857 L120.76,104.312857 Z M110.28,120.727143 C109.774286,120.727143 109.395714,120.598571 109.142857,120.347143 L104.345714,115.422857 C103.714286,114.791429 103.841429,114.034286 104.471429,113.402857 C105.102857,112.771429 105.987143,113.024286 106.618571,113.53 L110.532857,117.444286 L119.622857,109.615714 C120.254286,108.984286 121.137143,108.984286 121.768571,109.615714 C122.4,110.247143 122.4,111.004286 121.768571,111.635714 L111.542857,120.472857 C111.037143,120.6 110.532857,120.725714 110.28,120.725714 L110.28,120.727143 Z" id="形状" fill="#000000" fill-rule="nonzero"></path>
                <path d="M78.4542857,46.9471428 L76.1114285,46.9471428 L76.1114285,42.4957143 C76.1114285,37.9285715 79.782857,34.2242855 84.3085715,34.2242855 L222.482857,34.2242855 C227.01,34.2242855 230.678571,37.9285713 230.678571,42.4957143 L230.678571,134.685714 C230.678571,139.252857 227.01,142.957143 222.482857,142.957143 L218.401429,142.957143 L218.401429,140.597143 L222.482857,140.597143 C225.715714,140.597143 228.337143,137.951429 228.337143,134.685714 L228.337143,42.4957143 C228.337143,39.23 225.715714,36.5842857 222.482857,36.5842855 L84.3085715,36.5842855 C81.0757143,36.5842855 78.4542857,39.2299998 78.4542857,42.4957143 L78.4542857,46.9471428 Z M16.3928572,83.8614285 L16.3928572,81.5014285 L67.1428572,81.5014285 L67.1428572,83.86 L16.3928572,83.8614285 Z M194.38,154.775714 L194.38,152.415714 L245.128571,152.415714 L245.128571,154.775714 L194.38,154.775714 Z M252.928571,154.775714 L252.928571,152.415714 L273.231429,152.415714 L273.231429,154.775714 L252.928571,154.775714 Z M163.934286,15.31 C160.7,15.31 158.08,12.6642857 158.08,9.40285703 C158.08,6.1399998 160.7,3.49571426 163.934286,3.49571426 C167.168571,3.49571426 169.788571,6.14 169.788571,9.40285703 C169.788571,12.6642855 167.168571,15.31 163.934286,15.31 Z M163.934286,12.95 C165.874286,12.95 167.448571,11.3628572 167.448571,9.40285703 C167.448571,7.44285684 165.874286,5.85428555 163.934286,5.85428555 C161.994286,5.85428555 160.421429,7.44285703 160.421429,9.40285703 C160.421429,11.362857 161.994286,12.95 163.935714,12.95 L163.934286,12.95 Z M199.062857,199.687143 C195.828571,199.687143 193.208571,197.042857 193.208571,193.78 C193.208571,190.518571 195.828571,187.874286 199.062857,187.874286 C202.297143,187.874286 204.918571,190.518571 204.918571,193.78 C204.918571,197.042857 202.297143,199.687143 199.062857,199.687143 Z M199.062857,197.33 C201.002857,197.33 202.577143,195.741429 202.577143,193.78 C202.577143,191.82 201.002857,190.232857 199.062857,190.232857 C197.124286,190.232857 195.55,191.82 195.55,193.78 C195.55,195.741429 197.124286,197.328571 199.064286,197.328571 L199.062857,197.33 Z M40.9842857,124.045714 C38.3957143,124.045714 36.2985715,121.928571 36.2985715,119.32 C36.2985715,116.711429 38.3957143,114.595714 40.9842857,114.595714 C43.57,114.595714 45.6671428,116.71 45.6671428,119.32 C45.6671428,121.928571 43.5714285,124.045714 40.9842857,124.045714 Z M40.9842857,121.687143 C42.277143,121.687143 43.3257143,120.627143 43.3257143,119.32 C43.3257143,118.012857 42.2771428,116.954286 40.9828572,116.954286 C39.6914287,116.954286 38.6414285,118.011428 38.6414285,119.32 C38.6414285,120.627143 39.6914285,121.687143 40.9842857,121.687143 Z M251.757143,112.225714 C249.168571,112.225714 247.071429,110.111429 247.071429,107.501429 C247.071429,104.891429 249.168571,102.775714 251.757143,102.775714 C254.342857,102.775714 256.44,104.891429 256.44,107.501429 C256.44,110.11 254.344286,112.225714 251.757143,112.225714 Z M251.757143,109.868571 C253.05,109.868571 254.098571,108.808571 254.098571,107.501429 C254.098571,106.194286 253.05,105.134286 251.755714,105.134286 C250.464286,105.134286 249.414286,106.194286 249.414286,107.501429 C249.414286,108.808571 250.464286,109.867143 251.757143,109.867143 L251.757143,109.868571 Z" id="形状" fill="#000000" fill-rule="nonzero"></path>
                <path d="M266.957143,68.4985713 L266.957143,55.64 C266.957143,55.3293178 267.080561,55.0313603 267.300246,54.8116748 C267.519932,54.5919892 267.817889,54.4685713 268.128571,54.4685713 L270.514286,54.4685713 C270.824968,54.4685713 271.122925,54.5919893 271.342611,54.8116748 C271.562296,55.0313603 271.685714,55.3293178 271.685714,55.64 L271.685714,68.4971428 L284.542857,68.4971428 C285.189819,68.4971428 285.714286,69.0216092 285.714286,69.6685713 L285.714286,72.0542855 C285.714286,72.3649677 285.590868,72.6629252 285.371182,72.8826107 C285.151497,73.1022962 284.853539,73.2257143 284.542857,73.2257143 L271.685714,73.2257143 L271.685714,86.0842855 C271.685714,86.3949677 271.562296,86.6929252 271.342611,86.9126107 C271.122925,87.1322962 270.824968,87.2557143 270.514286,87.2557143 L268.128571,87.2557143 C267.817889,87.2557143 267.519932,87.1322963 267.300246,86.9126108 C267.080561,86.6929253 266.957143,86.3949678 266.957143,86.0842855 L266.957143,73.2257143 L254.098571,73.2257143 C253.787889,73.2257143 253.489932,73.1022963 253.270246,72.8826108 C253.050561,72.6629253 252.927143,72.3649678 252.927143,72.0542855 L252.927143,69.6685713 C252.927143,69.3578891 253.050561,69.0599316 253.270246,68.8402462 C253.489932,68.6205607 253.787889,68.4971427 254.098571,68.4971428 L266.955714,68.4971428 L266.957143,68.4985713 Z M7.01428574,120.501429 L7.01428574,114.658571 C7.01428574,114.011609 7.53875215,113.487143 8.18571426,113.487143 L8.20714277,113.487143 C8.51782497,113.487143 8.81578244,113.610561 9.03546795,113.830246 C9.25515345,114.049932 9.37857148,114.347889 9.37857148,114.658571 L9.37857148,120.501429 L15.2214285,120.501429 C15.5321107,120.501428 15.8300682,120.624846 16.0497537,120.844532 C16.2694392,121.064217 16.3928572,121.362175 16.3928572,121.672857 L16.3928572,121.694286 C16.3928572,122.004968 16.2694393,122.302925 16.0497538,122.522611 C15.8300682,122.742296 15.5321107,122.865714 15.2214285,122.865714 L9.37857148,122.865714 L9.37857148,128.708571 C9.37857154,129.019254 9.25515353,129.317211 9.03546802,129.536897 C8.81578251,129.756582 8.517825,129.88 8.20714277,129.88 L8.18571426,129.88 C7.87503206,129.88 7.57707461,129.756582 7.35738914,129.536896 C7.13770367,129.317211 7.01428569,129.019253 7.01428574,128.708571 L7.01428574,122.865714 L1.17142852,122.865714 C0.860746323,122.865714 0.562788867,122.742296 0.343103399,122.522611 C0.123417932,122.302925 0,122.004968 0,121.694286 L0,121.672857 C0,121.025895 0.524466411,120.501429 1.17142852,120.501429 L7.01428574,120.501429 L7.01428574,120.501429 Z M63.2214285,4.67571426 L63.2214285,1.17142852 C63.2214285,0.860746323 63.3448465,0.562788867 63.5645321,0.343103399 C63.7842176,0.123417932 64.082175,0 64.3928572,0 L64.4142857,0 C65.0612478,0 65.5857143,0.524466411 65.5857143,1.17142852 L65.5857143,4.67285703 L69.0857143,4.67285703 C69.7326764,4.67285703 70.2571428,5.19732344 70.2571428,5.84428555 L70.2571428,5.86571426 C70.2571428,6.51267636 69.7326764,7.03714277 69.0857143,7.03714277 L65.5857143,7.03714277 L65.5857143,10.5385713 C65.5857143,10.8492535 65.4622963,11.147211 65.2426109,11.3668965 C65.0229254,11.586582 64.7249679,11.71 64.4142857,11.71 L64.3914285,11.71 C64.0807463,11.71 63.7827889,11.586582 63.5631034,11.3668965 C63.3434179,11.147211 63.2199999,10.8492535 63.22,10.5385713 L63.22,7.03857129 L59.72,7.03857129 C59.0730379,7.03857129 58.5485715,6.51410488 58.5485715,5.86714277 L58.5485715,5.84714277 C58.5485715,5.20018067 59.0730379,4.67571426 59.72,4.67571426 L63.22,4.67571426 L63.2214285,4.67571426 Z" id="形状" fill="#000000" fill-rule="nonzero"></path>
            </g>
        </g>
    </g>
</svg>