<?xml version="1.0" encoding="UTF-8"?>
<svg width="16px" height="16px" viewBox="0 0 16 16" version="1.1" xmlns="http://www.w3.org/2000/svg" xmlns:xlink="http://www.w3.org/1999/xlink">
    <title>耗时短-长</title>
    <defs>
        <filter color-interpolation-filters="auto" id="filter-1">
            <feColorMatrix in="SourceGraphic" type="matrix" values="0 0 0 0 0.058824 0 0 0 0 0.333333 0 0 0 0 0.980392 0 0 0 1.000000 0"></feColorMatrix>
        </filter>
    </defs>
    <g id="页面-1" stroke="none" stroke-width="1" fill="none" fill-rule="evenodd">
        <g id="效能词典-非指标" transform="translate(-694.000000, -461.000000)">
            <g id="编组-7备份" transform="translate(224.000000, 94.000000)">
                <g id="耗时短-长" transform="translate(470.000000, 364.000000)" filter="url(#filter-1)">
                    <g transform="translate(0.000000, 3.000000)">
                        <path d="M15.3710714,4.88589286 C14.9680357,3.93321429 14.3914286,3.07767857 13.6567857,2.34321429 C12.9223214,1.60875 12.0667857,1.03196429 11.1141071,0.628928571 C10.1275,0.211607143 9.07982143,0 8,0 C7.68446429,0 7.42857143,0.255892857 7.42857143,0.571428571 L7.42857143,2.28571429 C7.42857143,2.60125 7.68446429,2.85714286 8,2.85714286 C8.31553571,2.85714286 8.57142857,2.60125 8.57142857,2.28571429 L8.57142857,1.16625 C10.1875,1.29875 11.6892857,1.99178571 12.84875,3.15125 C14.1439286,4.44642857 14.8571429,6.16839286 14.8571429,8 C14.8571429,9.83160714 14.1439286,11.5535714 12.84875,12.84875 C11.5535714,14.1439286 9.83160714,14.8571429 8,14.8571429 C6.16839286,14.8571429 4.44642857,14.1439286 3.15125,12.84875 C1.85607143,11.5535714 1.14285714,9.83160714 1.14285714,8 C1.14285714,7.04910714 1.33357143,6.12892857 1.70982143,5.26482143 C2.07339286,4.42982143 2.5925,3.68535714 3.25267857,3.05178571 C3.48035714,2.83321429 3.48785714,2.47160714 3.26928571,2.24375 C3.05071429,2.01607143 2.68910714,2.00857143 2.46125,2.22714286 C1.69142857,2.96589286 1.08607143,3.83428571 0.661785714,4.80839286 C0.222678571,5.81732143 0,6.89107143 0,8 C0,9.07982143 0.211607143,10.1275 0.628928571,11.1141071 C1.03196429,12.0667857 1.60857143,12.9223214 2.34321429,13.6567857 C3.07767857,14.39125 3.93321429,14.9680357 4.88589286,15.3710714 C5.8725,15.7883929 6.92017857,16 8,16 C9.07982143,16 10.1275,15.7883929 11.1141071,15.3710714 C12.0667857,14.9680357 12.9223214,14.3914286 13.6567857,13.6567857 C14.39125,12.9223214 14.9680357,12.0667857 15.3710714,11.1141071 C15.7883929,10.1275 16,9.07982143 16,8 C16,6.92017857 15.7883929,5.8725 15.3710714,4.88589286 Z" id="路径" fill="#000000" fill-rule="nonzero"></path>
                        <path d="M9.16608976,8.03947528 C9.16608976,7.40071236 8.64542473,6.88301625 8.00299859,6.88301625 C7.97373958,6.88301625 7.9446623,6.88446182 7.91594849,6.88663018 L5.6786336,4 L7.06725541,7.35264703 C6.91926124,7.55137523 6.83954611,7.79219817 6.83990743,8.03947528 C6.83990743,8.67823821 7.36057246,9.19593432 8.00299859,9.19593432 C8.64542473,9.19593432 9.16608976,8.67823821 9.16608976,8.03947528 Z M13.8184544,8.6177048 C14.1395766,8.6177048 14.4,8.3587664 14.4,8.03947528 C14.4,7.72018417 14.1395766,7.46124576 13.8184544,7.46124576 L12.6553633,7.46124576 C12.3342411,7.46124576 12.0738177,7.72018417 12.0738177,8.03947528 C12.0738177,8.3587664 12.3342411,8.6177048 12.6553633,8.6177048 L13.8184544,8.6177048 Z M7.42145301,12.6653114 L7.42145301,13.8217705 C7.42145301,14.1410616 7.68187639,14.4 8.00299859,14.4 C8.3241208,14.4 8.58454418,14.1410616 8.58454418,13.8217705 L8.58454418,12.6653114 C8.58454418,12.3460203 8.3241208,12.0870819 8.00299859,12.0870819 C7.68187639,12.0870819 7.42145301,12.3460203 7.42145301,12.6653114 Z M2.18154558,7.45546347 C1.86042338,7.45546347 1.6,7.71440188 1.6,8.03369299 C1.6,8.3529841 1.86042338,8.61192251 2.18154558,8.61192251 L3.34463675,8.61192251 C3.66575895,8.61192251 3.92618233,8.3529841 3.92618233,8.03369299 C3.92618233,7.71440188 3.66575895,7.45546347 3.34463675,7.45546347 L2.18154558,7.45546347 L2.18154558,7.45546347 Z" id="形状" fill="#000000" fill-rule="nonzero"></path>
                    </g>
                </g>
            </g>
        </g>
    </g>
</svg>