<?xml version="1.0" encoding="UTF-8"?>
<svg width="15px" height="13px" viewBox="0 0 15 13" version="1.1" xmlns="http://www.w3.org/2000/svg" xmlns:xlink="http://www.w3.org/1999/xlink">
    <title>节点管理</title>
    <defs>
        <filter color-interpolation-filters="auto" id="filter-1">
            <feColorMatrix in="SourceGraphic" type="matrix" values="0 0 0 0 0.337255 0 0 0 0 0.596078 0 0 0 0 0.996078 0 0 0 1.000000 0"></feColorMatrix>
        </filter>
    </defs>
    <g id="页面-1" stroke="none" stroke-width="1" fill="none" fill-rule="evenodd">
        <g id="节点管理" transform="translate(-1061.000000, -294.000000)" filter="url(#filter-1)">
            <g transform="translate(1061.000000, 294.000000)">
                <path d="M6.38196558,1.48531443 C6.13355623,0.60786686 5.31387294,0 4.37908056,0 C3.44428818,0 2.62460488,0.60786686 2.37619553,1.48531443 L0,1.48531443 L0,2.56131541 L2.37619553,2.56131541 C2.62460488,3.43876298 3.44428818,4.04662984 4.37908056,4.04662984 C5.31387294,4.04662984 6.13355623,3.43876298 6.38196558,2.56131541 L15,2.56131541 L15,1.48531443 L6.38196558,1.48531443 Z M4.37908056,2.97020493 C3.8419891,2.97020493 3.40659044,2.54627352 3.40659044,2.02332762 C3.40659044,1.50038172 3.8419891,1.07645031 4.37908056,1.07645031 C4.91617203,1.07645031 5.35157068,1.50038172 5.35157068,2.02332762 C5.35157068,2.54627352 4.91617203,2.97020493 4.37908056,2.97020493 L4.37908056,2.97020493 Z M10.6209194,4.47658851 C9.68668863,4.4777878 8.86773713,5.08493344 8.6180344,5.96146632 L0,5.96146632 L0,7.0374546 L8.6180344,7.0374546 C8.86644375,7.91490217 9.68612705,8.52276903 10.6209194,8.52276903 C11.5557118,8.52276903 12.3753951,7.91490217 12.6238045,7.0374546 L15,7.0374546 L15,5.96146632 L12.6237914,5.96146632 C12.37409,5.08493798 11.5551454,4.4777935 10.6209194,4.47658851 Z M10.6209194,7.4463441 C10.2275839,7.4463441 9.87297871,7.21564486 9.72245571,6.86182106 C9.57193271,6.50799726 9.65513483,6.10072845 9.93326506,5.82992344 C10.2113953,5.55911842 10.6296806,5.47810762 10.9930753,5.62466623 C11.3564699,5.77122485 11.5934095,6.11649067 11.5934095,6.4994668 C11.5934095,7.02241269 11.1580109,7.4463441 10.6209194,7.4463441 L10.6209194,7.4463441 Z M4.37908056,8.95380679 C3.44484976,8.95500608 2.62589825,9.56215172 2.37619553,10.4386846 L0,10.4386846 L0,11.5146856 L2.37619553,11.5146856 C2.62460488,12.3921331 3.44428818,13 4.37908056,13 C5.31387294,13 6.13355623,12.3921331 6.38196558,11.5146856 L15,11.5146856 L15,10.4386846 L6.38196558,10.4386846 C6.13226286,9.56215172 5.31331136,8.95500608 4.37908056,8.95380679 Z M4.37908056,11.9235624 C3.8419891,11.9235624 3.40659044,11.499631 3.40659044,10.9766851 C3.40659044,10.4537392 3.8419891,10.0298078 4.37908056,10.0298078 C4.91617203,10.0298078 5.35157068,10.4537392 5.35157068,10.9766851 C5.35157068,11.499631 4.91617203,11.9235624 4.37908056,11.9235624 L4.37908056,11.9235624 Z" id="形状" fill="#000000" fill-rule="nonzero"></path>
            </g>
        </g>
    </g>
</svg>