<?xml version="1.0" encoding="UTF-8"?>
<svg width="64px" height="24px" viewBox="0 0 64 24" version="1.1" xmlns="http://www.w3.org/2000/svg" xmlns:xlink="http://www.w3.org/1999/xlink">
    <title>形状结合</title>
    <g id="录入2-新开单列" stroke="none" stroke-width="1" fill="none" fill-rule="evenodd">
        <path d="M18.5653759,18.0899886 C18.7231252,18.0973862 18.9046669,18.1201789 19.1173985,18.1675637 C19.3503237,18.2191471 19.54866,18.300521 19.7130072,18.4116852 C19.8773544,18.5226496 20.0011146,18.6310148 20.0848877,18.7373806 C20.1682609,18.8433466 20.2228434,18.9569101 20.2482353,19.0782711 C20.2734272,19.1994322 20.2860231,19.312196 20.2860231,19.4155628 L20.2860231,19.4155628 L20.2860231,23.4600635 L18.8634801,23.4600635 L18.8634801,19.76665 L18.8844734,19.76665 L18.8844734,19.4197614 C18.8844734,19.078471 18.5771721,18.7993607 18.2016927,18.7993607 L18.2016927,18.7993607 L16.0787747,18.7993607 C15.7032953,18.7993607 15.3957941,19.078471 15.3957941,19.4197614 L15.3957941,19.4197614 L15.3957941,23.4526658 L13.9942443,23.4526658 L13.9942443,19.364979 C14.0004424,19.2752078 14.010839,19.1806382 14.0320322,19.0782711 C14.057624,18.9569101 14.1122065,18.8433466 14.1955797,18.7373806 C14.2793528,18.6310148 14.403113,18.5226496 14.5672603,18.4116852 C14.7316075,18.300521 14.9299438,18.2191471 15.1630689,18.1675637 C15.3756006,18.1201789 15.5573422,18.0973862 15.7150915,18.0933875 L15.7150915,18.0933875 L15.7150915,18.0899886 L18.5653759,18.0899886 Z M11.2917325,18.0899886 C11.4496818,18.0973862 11.6312235,18.1201789 11.8437552,18.1675637 C12.0768803,18.2191471 12.2752166,18.300521 12.4395638,18.4116852 C12.6037111,18.5226496 12.7274713,18.6310148 12.8112444,18.7373806 C12.8948175,18.8433466 12.9492001,18.9569101 12.9747918,19.0782711 C12.9999838,19.1994322 13.0125797,19.312196 13.0125797,19.4155628 L13.0125797,19.4155628 L13.0125797,23.4600635 L11.5900367,23.4600635 L11.5900367,19.76665 L11.61103,19.76665 L11.61103,19.4197614 C11.61103,19.078471 11.3037287,18.7993607 10.9282493,18.7993607 L10.9282493,18.7993607 L8.80533129,18.7993607 C8.42965197,18.7993607 8.12235069,19.078471 8.12235069,19.4197614 L8.12235069,19.4197614 L8.12235069,23.4526658 L6.72080094,23.4526658 L6.72080094,19.364979 C6.72699895,19.2752078 6.73719568,19.1806382 6.7585888,19.0782711 C6.78418058,18.9569101 6.83856311,18.8433466 6.92213626,18.7373806 C7.00590935,18.6310148 7.12966959,18.5226496 7.29381686,18.4116852 C7.45816406,18.300521 7.65650035,18.2191471 7.88962546,18.1675637 C8.10215718,18.1201789 8.28369886,18.0973862 8.44164812,18.0933875 L8.44164812,18.0933875 L8.44164812,18.0899886 L11.2917325,18.0899886 Z M59.4076953,18.0976261 C59.9279282,18.0976261 60.3106052,18.2783681 60.5557265,18.639652 C60.6780872,18.455911 60.834237,18.3197548 61.024176,18.2307834 C61.213915,18.1422118 61.4406422,18.0976261 61.7037577,18.0976261 L61.7037577,18.0976261 L62.4661128,18.0976261 C62.882579,18.0976261 63.2422634,18.2477779 63.5453661,18.5476816 C63.8484687,18.8477851 64.00002,19.2058701 64.00002,19.6223363 L64.00002,19.6223363 L64.00002,23.4525059 L62.4661128,23.4525059 L62.4661128,19.6223363 C62.4661128,19.4202013 62.3911368,19.2428582 62.241185,19.0895075 C62.0910333,18.9365566 61.9118908,18.8599812 61.7037577,18.8599812 C61.4956245,18.8599812 61.3148826,18.9351571 61.1617318,19.0851089 C61.0087809,19.2350607 60.9324055,19.4142032 60.9324055,19.6223363 L60.9324055,19.6223363 L60.9324055,23.4525059 L59.4076953,23.4525059 L59.4076953,19.6223363 C59.4076953,19.4142032 59.3325194,19.2350607 59.1825676,19.0851089 C59.0921966,18.9947379 58.98843,18.9349571 58.8746665,18.8989687 L58.8746665,18.8989687 C58.8372785,18.8881722 58.7994907,18.8783753 58.7601033,18.8713776 C58.7197163,18.8651796 58.6791293,18.8599812 58.6359432,18.8599812 C58.5881586,18.8599812 58.5423733,18.8651796 58.4975876,18.873177 C58.4763945,18.8771757 58.4566008,18.8837736 58.4362074,18.8895717 C58.4140145,18.8955698 58.3920216,18.9015679 58.3704285,18.9097652 C58.3466361,18.9191622 58.3234436,18.9307585 58.3006509,18.9425547 C58.2838563,18.9513519 58.2672616,18.9601491 58.2512668,18.9701458 C58.2292738,18.9837415 58.2080807,18.9985367 58.1870874,19.0145316 C58.1568971,19.0377241 58.1267068,19.0609167 58.0989157,19.0895075 C57.948764,19.2428582 57.873788,19.4202013 57.873788,19.6223363 L57.873788,19.6223363 L57.873788,23.4525059 L56.3398808,23.4525059 L56.3398808,19.6223363 C56.3398808,19.2058701 56.4914321,18.8477851 56.7943348,18.5476816 C57.0976374,18.2477779 57.4575218,18.0976261 57.873788,18.0976261 L57.873788,18.0976261 Z M53.6744171,18.135514 C53.82097,18.1431115 53.9895159,18.1657043 54.1866525,18.213089 C54.402983,18.2644725 54.5871239,18.3460463 54.7396749,18.4570107 C54.891826,18.568175 55.006989,18.6765402 55.0845641,18.782906 C55.1621392,18.8888719 55.212523,19.0024355 55.2363153,19.1237965 C55.2597078,19.2451575 55.271504,19.3579213 55.271504,19.4610881 L55.271504,19.4610881 L55.271504,22.0266639 C55.271504,22.2749842 55.2223198,22.4867161 55.1239514,22.6626596 C55.025583,22.8382032 54.9240157,22.9661621 54.8186495,23.0461364 C54.7132834,23.1263107 54.5877237,23.1902901 54.4421705,23.2378748 C54.2968171,23.2858594 54.1362687,23.3270462 53.9601253,23.3622349 C53.7843818,23.3970237 53.6254328,23.4146181 53.4842782,23.4146181 L53.4842782,23.4146181 L51.2190059,23.4146181 C51.0780512,23.4146181 50.9191022,23.3970237 50.7433587,23.3622349 C50.5674152,23.3270462 50.4068668,23.2858594 50.2613136,23.2378748 C50.1157603,23.1902901 49.9904006,23.1263107 49.8848345,23.0461364 C49.7796683,22.9661621 49.677901,22.8382032 49.5797325,22.6626596 C49.4813641,22.4867161 49.4321799,22.2749842 49.4321799,22.0266639 L49.4321799,22.0266639 L49.4321799,19.4610881 C49.4321799,19.3579213 49.4437762,19.2451575 49.4673686,19.1237965 C49.491161,19.0024355 49.5415448,18.8888719 49.6189199,18.782906 C49.6966949,18.6765402 49.811658,18.568175 49.9640091,18.4570107 C50.1165601,18.3460463 50.3007009,18.2644725 50.5170314,18.213089 C50.7141681,18.1657043 50.8827139,18.1431115 51.0292668,18.1389129 L51.0292668,18.1389129 L51.0292668,18.135514 L53.6744171,18.135514 Z M25.5147034,18.135534 C25.6882477,18.135534 25.8527948,18.1549277 26.0087447,18.1933154 C26.1646946,18.2325028 26.3118473,18.2812871 26.4502029,18.340868 C26.5885584,18.4004489 26.7125186,18.4986173 26.8226832,18.6353734 C26.9170529,18.7533355 26.9756341,18.9316782 27.0028253,19.1638036 L27.0028253,19.1638036 L27.0028253,20.7448957 L22.53686,20.7448957 L22.53686,22.0244846 C22.53686,22.365775 22.8159704,22.6448853 23.1572607,22.6448853 L23.1572607,22.6448853 L25.2151996,22.6448853 C25.55649,22.6448853 25.8356003,22.365775 25.8356003,22.0244846 L25.8356003,22.0244846 L25.8356003,21.4376731 L27.0028253,21.4376731 L27.0028253,22.6940695 C26.9964274,22.7556497 26.9842313,22.8158304 26.9526415,22.8694132 C26.8810645,22.991574 26.751906,23.075547 26.633344,23.140926 C26.4949885,23.2173014 26.3192449,23.2820806 26.1063133,23.3348637 C25.8935817,23.3878467 25.6908468,23.414638 25.4983087,23.414638 L25.4983087,23.414638 L23.0127072,23.414638 C22.8745516,23.414638 22.7192015,23.3970437 22.5470568,23.3622549 C22.3747121,23.3270662 22.2175626,23.2858794 22.0752083,23.2378948 C21.9326541,23.1903101 21.8098936,23.1263307 21.7069266,23.0461564 C21.6037598,22.9659822 21.5041918,22.8382232 21.4080227,22.6624797 C21.3118536,22.4867361 21.263669,22.2750042 21.263669,22.0266839 L21.263669,22.0266839 L21.263669,19.4611081 C21.263669,19.3579413 21.2750654,19.2451775 21.298058,19.1238165 C21.3212505,19.0024555 21.3706347,18.888692 21.4466103,18.782926 C21.5225859,18.6765602 21.6351497,18.567995 21.7843018,18.4570307 C21.9334539,18.3460663 22.113596,18.2644925 22.325328,18.213109 C22.5184659,18.1657243 22.683413,18.1429316 22.8269668,18.1389329 C22.8269668,18.135534 22.8703529,18.135534 22.8703529,18.135534 Z M28.8203815,18.1356139 C29.515958,18.1356139 29.7696765,18.7426189 29.7696765,18.7426189 L29.7696765,18.7426189 L30.9361018,21.5301234 L32.3564455,18.1356139 L33.7447995,18.1356139 L35.1653431,21.5301234 L36.5848871,18.1356139 L38.1457857,18.1356139 L36.1884145,22.8145108 C36.1860152,22.8207088 35.9372951,23.4145181 35.3228925,23.4145181 L35.3228925,23.4145181 L34.6167194,23.4145181 L33.0508224,19.6703209 L31.735445,22.8145108 C31.7332457,22.8207088 31.4843257,23.4145181 30.8693232,23.4145181 L30.8693232,23.4145181 L30.1639498,23.4145181 L29.2736358,21.2860019 L29.0850964,20.8351467 L27.9802513,18.1356139 Z M46.8398927,18.135534 C47.0134369,18.135534 47.1779841,18.1549277 47.333934,18.1933154 C47.4896839,18.2325028 47.6370366,18.2812871 47.7753922,18.340868 C47.9137477,18.4004489 48.0377079,18.4986173 48.1476726,18.6353734 C48.2574373,18.7725293 48.3220166,18.9870604 48.3406106,19.2789666 L48.3406106,19.2789666 L48.3855961,19.9919376 L47.1605897,19.9919376 L47.1605897,19.4653068 C47.1605897,19.1240164 46.8814793,18.8449061 46.5403889,18.8449061 L46.5403889,18.8449061 L44.4822501,18.8449061 C44.1409597,18.8449061 43.8620493,19.1240164 43.8620493,19.4653068 L43.8620493,19.4653068 L43.8620493,22.0244846 C43.8620493,22.365775 44.1409597,22.6448853 44.4822501,22.6448853 L44.4822501,22.6448853 L46.5403889,22.6448853 C46.8814793,22.6448853 47.1605897,22.365775 47.1605897,22.0244846 L47.1605897,22.0244846 L47.1605897,21.4376731 L48.4465765,21.4376731 L48.4099883,22.4687419 C48.40459,22.6158946 48.3626035,22.745653 48.2838288,22.8580169 C48.2052541,22.9703808 48.0968889,23.0651503 47.9585333,23.1411259 C47.8201778,23.2173014 47.6444342,23.2820806 47.4315026,23.3348637 C47.218771,23.3878467 47.0158362,23.414638 46.823298,23.414638 L46.823298,23.414638 L44.3378965,23.414638 C44.1997408,23.414638 44.0441908,23.3970437 43.872246,23.3622549 C43.6997015,23.3270662 43.5427519,23.2858794 43.4001977,23.2378948 C43.2578434,23.1903101 43.1348829,23.1263307 43.0321159,23.0461564 C42.9289491,22.9661821 42.8293811,22.8382232 42.733012,22.6624797 C42.6368429,22.4867361 42.5888583,22.2750042 42.5888583,22.0266839 L42.5888583,22.0266839 L42.5888583,19.4611081 C42.5888583,19.3579413 42.6000547,19.2451775 42.6232473,19.1238165 C42.6464398,19.0024555 42.695824,18.888692 42.7717996,18.782926 C42.8477752,18.6765602 42.9601391,18.567995 43.1092911,18.4570307 C43.2584432,18.3460663 43.4387853,18.2644925 43.6505173,18.213109 C43.8436552,18.1657243 44.0084023,18.1429316 44.1519562,18.1389329 L44.1519562,18.1389329 L44.1519562,18.135534 Z M4.25103436,18.135534 C4.4245786,18.135534 4.58912574,18.1549277 4.74507564,18.1933154 C4.90102555,18.2325028 5.04817827,18.2812871 5.18653383,18.340868 C5.32488938,18.4004489 5.44884956,18.4986173 5.55901417,18.6353734 C5.65318391,18.7533355 5.71196503,18.9316782 5.7391563,19.1638036 L5.7391563,19.1638036 L5.7391563,20.7448957 L1.27319099,20.7448957 L1.27319099,22.0244846 C1.27319099,22.365775 1.55230132,22.6448853 1.89339175,22.6448853 L1.89339175,22.6448853 L3.95153057,22.6448853 C4.29282093,22.6448853 4.57193127,22.365775 4.57193127,22.0244846 L4.57193127,22.0244846 L4.57193127,21.4376731 L5.7391563,21.4376731 L5.7391563,22.6940695 C5.73255842,22.7556497 5.72036233,22.8158304 5.68897242,22.8694132 C5.61739541,22.991574 5.4882369,23.075547 5.36967499,23.140926 C5.23131944,23.2173014 5.0555759,23.2820806 4.8426443,23.3348637 C4.62991264,23.3878467 4.42717777,23.414638 4.23463962,23.414638 L4.23463962,23.414638 L1.74903812,23.414638 C1.6108825,23.414638 1.45553241,23.3970437 1.28338771,23.3622549 C1.11104308,23.3270662 0.953893562,23.2858794 0.811539293,23.2378948 C0.668985089,23.1903101 0.546224525,23.1263307 0.443257603,23.0461564 C0.340090746,22.9659822 0.240322796,22.8382232 0.144353626,22.6624797 C0.0481845207,22.4867361 0,22.2750042 0,22.0266839 L0,22.0266839 L0,19.4611081 C0,19.3579413 0.0113963389,19.2451775 0.0343889525,19.1238165 C0.0575815019,19.0024555 0.106965637,18.888692 0.18294123,18.782926 C0.258916823,18.6765602 0.371480662,18.567995 0.520632747,18.4570307 C0.669784832,18.3460663 0.849926961,18.2644925 1.06165894,18.213109 C1.2547969,18.1657243 1.41974391,18.1429316 1.56309785,18.1389329 C1.56309785,18.135534 1.60668385,18.135534 1.60668385,18.135534 Z M40.2,21 C40.8627417,21 41.4,21.5372583 41.4,22.2 C41.4,22.8627417 40.8627417,23.4 40.2,23.4 C39.5372583,23.4 39,22.8627417 39,22.2 C39,21.5372583 39.5372583,21 40.2,21 Z M53.3369255,18.8448861 L51.3667584,18.8448861 C51.0180704,18.8448861 50.732962,19.1239964 50.732962,19.4652868 L50.732962,19.4652868 L50.732962,22.0244646 C50.732962,22.365755 51.0180704,22.6448653 51.3667584,22.6448653 L51.3667584,22.6448653 L53.3369255,22.6448653 C53.6854136,22.6448653 53.970522,22.365755 53.970522,22.0244646 L53.970522,22.0244646 L53.970522,19.4652868 C53.970522,19.1239964 53.6854136,18.8448861 53.3369255,18.8448861 L53.3369255,18.8448861 Z M3.95153057,18.8449061 L1.89339175,18.8449061 C1.55230132,18.8449061 1.27319099,19.1240164 1.27319099,19.4653068 L1.27319099,19.4653068 L1.27319099,20.0355236 L4.57193127,20.0355236 L4.57193127,19.4653068 C4.57193127,19.1240164 4.29282093,18.8449061 3.95153057,18.8449061 L3.95153057,18.8449061 Z M25.2151996,18.8449061 L23.1572607,18.8449061 C22.8159704,18.8449061 22.53686,19.1240164 22.53686,19.4653068 L22.53686,19.4653068 L22.53686,20.0355236 L25.8356003,20.0355236 L25.8356003,19.4653068 C25.8356003,19.1240164 25.55649,18.8449061 25.2151996,18.8449061 L25.2151996,18.8449061 Z M33.2038533,0.121720897 L33.2038533,3.07497217 L40.1552201,3.07497217 C40.2138013,3.54862001 40.1200314,3.92229996 39.8735106,4.19661184 C39.6273897,4.47092372 39.2401141,4.60807965 38.7120837,4.60807965 L38.7120837,4.60807965 L33.2038533,4.60807965 L33.2038533,6.28574071 L33.2156495,6.28574071 L33.2156495,9.82080507 L40.7184392,9.82080507 C40.7418317,10.315846 40.6304675,10.7057208 40.3839467,10.9906293 C40.1376258,11.2759376 39.7441522,11.4184918 39.2047255,11.4184918 L39.2047255,11.4184918 L33.2156495,11.4184918 L33.2156495,16.0020194 L31.1623091,16.0020194 L31.1623091,11.4184918 L23.2784418,11.4184918 C23.2784418,10.9236508 23.3986032,10.5335761 23.6393259,10.2484677 C23.8794487,9.96335927 24.2401329,9.82080507 24.7213783,9.82080507 L24.7213783,9.82080507 L31.1623091,9.82080507 L31.1623091,4.60807965 L25.3021917,4.60807965 C24.856135,4.60807965 24.5338385,4.53550297 24.3343026,4.39014966 C24.1345668,4.24499629 24.0088072,4.07545076 23.9560241,3.88191294 C23.9030411,3.68837511 23.9030411,3.49203818 23.9560241,3.29290216 C24.0088072,3.09396606 24.0701875,2.935417 24.1405648,2.81685509 L24.1405648,2.81685509 L25.5311181,0.573575739 C25.7070616,0.573575739 25.8976004,0.613962764 26.1027345,0.69453688 C26.3080685,0.775310931 26.4812129,0.888274642 26.6219677,1.03362795 C26.7629224,1.17878132 26.8566923,1.34572768 26.9038771,1.53386725 C26.9506621,1.72220674 26.9038771,1.923742 26.7629224,2.13907282 L26.7629224,2.13907282 L26.1471202,3.07497217 L31.1623091,3.07497217 L31.1623091,1.33213205 C31.1623091,0.923263402 31.3410517,0.616561929 31.6993366,0.412227572 C32.0568217,0.20809315 32.5586605,0.111124301 33.2038533,0.121720897 L33.2038533,0.121720897 Z M16.2157507,10.7753984 L17.1154617,16.0019194 L16.1567696,16.0019194 C15.3436779,16.0019194 15.1228699,15.2776365 15.082169,15.107217 L15.0745173,15.0716182 L15.0745173,15.0716182 L14.3351548,10.7753984 L16.2157507,10.7753984 Z M2.86861846,10.6505385 L2.12925598,14.9467584 C2.12925598,14.9467584 1.96870755,15.8768596 1.04700365,15.8768596 L1.04700365,15.8768596 L0.0883116299,15.8768596 L0.988022598,10.6505385 L2.86861846,10.6505385 Z M5.84284299,11.5941754 L5.84284299,14.4284649 L13.7325084,14.4284649 L13.7325084,14.5418284 C13.7561009,14.8869176 13.6345399,15.1892205 13.3676257,15.4485372 C13.1005115,15.7078539 12.7706174,15.8370124 12.3789433,15.8370124 L5.6115173,15.8370124 C5.1956509,15.8370124 4.87475399,15.7780313 4.64962631,15.6586697 C4.42369889,15.5403077 4.25175412,15.3971537 4.13319221,15.2296075 C4.01443036,15.0626611 3.94285336,14.8921159 3.91946087,14.7199712 C3.89526864,14.5470268 3.88367237,14.4122701 3.88367237,14.3153012 L3.88367237,10.3475758 C5.18945289,10.2937931 5.84284299,10.7096595 5.84284299,11.5941754 Z M62.4356026,5.99807311e-05 C62.7568993,5.99807311e-05 63.0328107,0.123820223 63.262337,0.371340707 C63.4746688,0.600866971 63.5848334,0.874978913 63.6006283,1.19007769 L63.6006283,1.19007769 L63.6070262,1.19007769 L63.6070262,14.5269932 L63.5948302,14.5269932 C63.5820343,14.6513533 63.5558427,14.7715147 63.5036594,14.8836786 C63.4344817,15.0314312 63.340112,15.1607896 63.2195507,15.271554 C63.0987895,15.3821185 62.9578348,15.4716897 62.7972864,15.5400678 C62.6363381,15.6086457 62.4641934,15.6484329 62.2802525,15.6588296 L62.2802525,15.6588296 L59.6456988,15.6588296 C59.6456988,15.3107414 59.7774565,15.013237 60.0413717,14.7651167 C60.3056868,14.5175962 60.6269836,14.393836 61.0056619,14.393836 L61.0056619,14.393836 L61.4905062,14.393836 L61.4905062,1.2650536 L48.2605563,1.2650536 L48.2605963,15.6587496 L46.2292489,15.6587496 L46.2292489,1.91356527 C46.2798326,0.64177383 46.9500173,-1.99935771e-05 48.2605963,-1.99935771e-05 L48.2605963,-1.99935771e-05 L48.2609011,0.852746583 C48.3413236,0.610683899 48.4787656,0.408095756 48.6740235,0.245181236 C48.8689608,0.0816337751 49.0984871,5.99807311e-05 49.3626023,5.99807311e-05 L49.3626023,5.99807311e-05 Z M8.86463224,10.6062927 C9.419454,10.6736711 9.88990287,10.9717753 10.2747792,11.5016051 L11.7255132,13.5793376 C10.9817521,13.8674451 10.3505549,13.9522179 9.83332105,13.8340558 C9.33068252,13.7122949 8.91201701,13.4183893 8.57832421,12.9521391 L7.13118911,10.9581797 C7.73179616,10.6562767 8.30921067,10.5393142 8.86463224,10.6062927 Z M54.0750284,3.60694127 C54.2919587,3.60254268 54.5060899,3.63153337 54.7180218,3.69411327 L54.7180218,3.69411327 L52.5121305,8.17407408 L54.7180218,12.6546347 C54.5060899,12.7172146 54.2919587,12.7462053 54.0750284,12.7420066 C53.8572983,12.737608 53.6539637,12.7016196 53.4648244,12.6342412 C53.2750854,12.5668629 53.1023409,12.4726931 52.9465909,12.351732 C52.7904411,12.2305709 52.6734786,12.0850177 52.5955037,11.9142725 L52.5955037,11.9142725 L51.6266149,9.96369916 L50.6737211,11.9142725 C50.5959461,12.0850177 50.4817827,12.2305709 50.3312311,12.351732 C50.1806795,12.4726931 50.007935,12.5668629 49.8129976,12.6342412 C49.6182601,12.7016196 49.4149255,12.737608 49.2029935,12.7420066 C48.9916614,12.7462053 48.7797295,12.7172146 48.5683974,12.6546347 L48.5683974,12.6546347 L50.7572942,8.17407408 L48.5683974,3.69411327 C48.7797295,3.63153337 48.9916614,3.60254268 49.2029935,3.60694127 C49.4149255,3.61173973 49.6182601,3.64712836 49.8129976,3.71450671 C50.007935,3.78208501 50.1806795,3.87605482 50.3312311,3.99681602 C50.4817827,4.11817704 50.5959461,4.26413015 50.6737211,4.43447542 L50.6737211,4.43447542 L51.6266149,6.39864444 L52.5955037,4.43447542 C52.6734786,4.26413015 52.7904411,4.11817704 52.9465909,3.99681602 C53.1023409,3.87605482 53.2750854,3.78208501 53.4648244,3.71450671 C53.6539637,3.64712836 53.8572983,3.61173973 54.0750284,3.60694127 Z M60.5506681,3.60694127 C60.7618003,3.60254268 60.9737322,3.63153337 61.185864,3.69411327 L61.185864,3.69411327 L58.9797727,8.17407408 L61.185864,12.6546347 C60.9737322,12.7172146 60.7618003,12.7462053 60.5506681,12.7420066 C60.3385362,12.737608 60.1354015,12.7016196 59.9404641,12.6342412 C59.7455267,12.5668629 59.5727822,12.4726931 59.4222306,12.351732 C59.271679,12.2305709 59.1577156,12.0850177 59.0797406,11.9142725 L59.0797406,11.9142725 L58.110652,9.96369916 L57.157958,11.9142725 C57.0687867,12.0850177 56.9488252,12.2305709 56.7988734,12.351732 C56.6483217,12.4726931 56.4755772,12.5668629 56.2806398,12.6342412 C56.0855025,12.7016196 55.8819679,12.737608 55.6708357,12.7420066 C55.4587039,12.7462053 55.246772,12.7172146 55.0356398,12.6546347 L55.0356398,12.6546347 L57.2415312,8.17407408 L55.0356398,3.69411327 C55.246772,3.63153337 55.4587039,3.60254268 55.6708357,3.60694127 C55.8819679,3.61173973 56.0855025,3.64712836 56.2806398,3.71450671 C56.4755772,3.78208501 56.6483217,3.87605482 56.7988734,3.99681602 C56.9488252,4.11817704 57.0687867,4.26413015 57.157958,4.43447542 L57.157958,4.43447542 L58.110652,6.39864444 L59.0797406,4.43447542 C59.1577156,4.26413015 59.271679,4.11817704 59.4222306,3.99681602 C59.5727822,3.87605482 59.7455267,3.78208501 59.9404641,3.71450671 C60.1354015,3.64712836 60.3385362,3.61173973 60.5506681,3.60694127 Z M16.115083,0.353906308 L16.115083,9.62092928 L0.931560736,9.62092928 L0.931560736,1.35038619 C0.983144165,0.68799898 1.66792418,0.353906308 3.00769378,0.353906308 L3.00769378,0.353906308 L3.007,1.66298001 L3.01210925,1.4996051 C3.05036896,0.815033548 3.3371666,0.440300953 3.86859766,0.369940979 L3.99557642,0.359104638 L3.99557642,0.353906308 L16.115083,0.353906308 Z M14.03895,1.66308573 L3.007,1.66298001 L3.00769378,8.3511372 L14.03895,8.3511372 L14.03895,1.66308573 Z M9.66267587,2.51729132 L9.66267587,3.80487768 L13.5420296,3.80487768 L13.5420296,5.19303174 L10.9618585,5.19303174 L13.3238997,7.45750428 L10.8846833,7.45750428 L8.52284204,5.19303174 L6.16140065,7.45750428 L3.72218425,7.45750428 L6.08402551,5.19303174 L3.50465413,5.19303174 L3.50465413,3.80487768 L7.38420782,3.80487768 L7.38420782,2.51729132 L9.66267587,2.51729132 Z" id="形状结合" fill="#4068D4"></path>
    </g>
</svg>