<?xml version="1.0" encoding="UTF-8"?>
<svg width="12px" height="12px" viewBox="0 0 12 12" version="1.1" xmlns="http://www.w3.org/2000/svg" xmlns:xlink="http://www.w3.org/1999/xlink">
    <title>切片</title>
    <g id="v1.1" stroke="none" stroke-width="1" fill="none" fill-rule="evenodd">
        <g id="切图" transform="translate(-151.000000, -83.000000)" fill="#A7A7AB" fill-rule="nonzero">
            <g id="icon/12*12/资产" transform="translate(151.000000, 83.000000)">
                <path d="M3.625,1.08 L3.5,1.08 C3.56875,1.08 3.625,1.026 3.625,0.96 L3.625,1.08 L8.375,1.08 L8.375,0.96 C8.375,1.026 8.43125,1.08 8.5,1.08 L8.375,1.08 L8.375,2.16 L9.5,2.16 L9.5,0.96 C9.5,0.4305 9.0515625,0 8.5,0 L3.5,0 C2.9484375,0 2.5,0.4305 2.5,0.96 L2.5,2.16 L3.625,2.16 L3.625,1.08 Z M11.5,2.16 L0.5,2.16 C0.2234375,2.16 0,2.3745 0,2.64 L0,3.12 C0,3.186 0.05625,3.24 0.125,3.24 L1.06875,3.24 L1.4546875,11.085 C1.4796875,11.5965 1.9203125,12 2.453125,12 L9.546875,12 C10.08125,12 10.5203125,11.598 10.5453125,11.085 L10.93125,3.24 L11.875,3.24 C11.94375,3.24 12,3.186 12,3.12 L12,2.64 C12,2.3745 11.7765625,2.16 11.5,2.16 Z M9.4265625,10.92 L2.5734375,10.92 L2.1953125,3.24 L9.8046875,3.24 L9.4265625,10.92 Z" id="fill"></path>
            </g>
        </g>
    </g>
</svg>