<?xml version="1.0" encoding="UTF-8"?>
<svg width="12px" height="12px" viewBox="0 0 12 12" version="1.1" xmlns="http://www.w3.org/2000/svg" xmlns:xlink="http://www.w3.org/1999/xlink">
    <title>切片</title>
    <g id="v1.1" stroke="none" stroke-width="1" fill="none" fill-rule="evenodd">
        <g id="切图" transform="translate(-188.000000, -83.000000)" fill="#A7A7AB" fill-rule="nonzero">
            <g id="icon/12*12/资产" transform="translate(188.000000, 83.000000)">
                <g id="yidongshu" transform="translate(3.000000, 0.000000)">
                    <path d="M1,10 C0.44771525,10 0,10.4477152 0,11 C0,11.5522848 0.44771525,12 1,12 C1.55228475,12 2,11.5522848 2,11 C2,10.4477152 1.55228475,10 1,10 Z M1,5 C0.44771525,5 0,5.44771525 0,6 C0,6.55228475 0.44771525,7 1,7 C1.55228475,7 2,6.55228475 2,6 C2,5.44771525 1.55228475,5 1,5 Z M1,0 C0.44771525,0 0,0.447715297 0,1 C0,1.5522847 0.44771525,2 1,2 C1.55228475,2 2,1.5522847 2,1 C2,0.447715297 1.55228475,0 1,0 Z M5,10 C4.44771525,10 4,10.4477152 4,11 C4,11.5522848 4.44771525,12 5,12 C5.5522847,12 6,11.5522848 6,11 C6,10.4477152 5.5522847,10 5,10 Z M5,5 C4.44771525,5 4,5.44771525 4,6 C4,6.55228475 4.44771525,7 5,7 C5.5522847,7 6,6.55228475 6,6 C6,5.44771525 5.5522847,5 5,5 Z M5,0 C4.44771525,0 4,0.447715297 4,1 C4,1.5522847 4.44771525,2 5,2 C5.5522847,2 6,1.5522847 6,1 C6,0.447715297 5.5522847,0 5,0 Z" id="形状"></path>
                </g>
            </g>
        </g>
    </g>
</svg>