<?xml version="1.0" encoding="UTF-8"?>
<svg width="12px" height="12px" viewBox="0 0 12 12" version="1.1" xmlns="http://www.w3.org/2000/svg" xmlns:xlink="http://www.w3.org/1999/xlink">
    <title>切片</title>
    <g id="v1.1" stroke="none" stroke-width="1" fill="none" fill-rule="evenodd">
        <g id="切图" transform="translate(-114.000000, -83.000000)" fill="#0F55FA" fill-rule="nonzero">
            <g id="icon/12*12/资产" transform="translate(114.000000, 83.000000)">
                <path d="M5.87981626,0 C5.94581419,0 5.99981251,0.0539983126 5.99981251,0.11999625 L5.99981251,0.11999625 L5.99981251,0.959970001 C5.99981251,1.02596794 5.94581419,1.07996625 5.87981626,1.07996625 L5.87981626,1.07996625 L1.07996625,1.07996625 L1.07996625,10.9196588 L10.9196588,10.9196588 L10.9196588,6.11980876 C10.9196588,6.05381082 10.9736571,5.99981251 11.039655,5.99981251 L11.039655,5.99981251 L11.8796288,5.99981251 C11.9456267,5.99981251 11.999625,6.05381082 11.999625,6.11980876 L11.999625,6.11980876 L11.999625,11.51964 C11.999625,11.7851317 11.7851317,11.999625 11.51964,11.999625 L11.51964,11.999625 L0.479985,11.999625 C0.214493297,11.999625 0,11.7851317 0,11.51964 L0,11.51964 L0,0.479985 C0,0.214493297 0.214493297,0 0.479985,0 L0.479985,0 Z M10.015187,0 C10.046686,0 10.0766851,0.0104996719 10.1006844,0.0344989219 L10.1006844,0.0344989219 L11.9651261,1.8974407 C12.0116246,1.94393925 12.0116246,2.02043686 11.9651261,2.06693541 L11.9651261,2.06693541 L5.72682104,8.29174088 C5.70582169,8.31274023 5.67582263,8.32473985 5.64582357,8.32623981 L5.64582357,8.32623981 L3.87587888,8.36973845 C3.73638324,8.36973845 3.62838661,8.26024187 3.62987113,8.12674604 L3.62987113,8.12674604 L3.65838568,6.34330177 C3.65838568,6.31180276 3.67188525,6.28180369 3.6928846,6.2593044 L3.6928846,6.2593044 L9.9296897,0.0344989219 C9.95368895,0.011999625 9.98368801,0 10.015187,0 Z M10.015187,1.30495922 L4.61085591,6.69729071 L4.60035624,7.39326896 L5.28583482,7.37676948 L10.6931658,1.98143808 L10.015187,1.30495922 Z" id="fill"></path>
            </g>
        </g>
    </g>
</svg>