<?xml version="1.0" encoding="UTF-8"?>
<svg width="16px" height="16px" viewBox="0 0 16 16" version="1.1" xmlns="http://www.w3.org/2000/svg" xmlns:xlink="http://www.w3.org/1999/xlink">
    <title>指标 (1)</title>
    <defs>
        <filter color-interpolation-filters="auto" id="filter-1">
            <feColorMatrix in="SourceGraphic" type="matrix" values="0 0 0 0 0.058824 0 0 0 0 0.333333 0 0 0 0 0.980392 0 0 0 1.000000 0"></feColorMatrix>
        </filter>
    </defs>
    <g id="页面-1" stroke="none" stroke-width="1" fill="none" fill-rule="evenodd">
        <g id="效能词典-指标备份-2" transform="translate(-428.000000, -405.000000)">
            <g id="指标-(1)" transform="translate(428.000000, 402.000000)" filter="url(#filter-1)">
                <g transform="translate(0.000000, 3.000000)">
                    <path d="M14.6830409,0 L1.31695907,0 C0.589473684,0 -1.27648379e-15,0.630367419 -1.27648379e-15,1.4071123 L-1.27648379e-15,14.5928877 C-1.27648379e-15,15.3696326 0.589473684,16 1.31695907,16 L2.29005849,16 C2.46315791,16 2.6269006,15.9173676 2.73450293,15.773351 L5.93216375,11.5402095 L7.39181288,12.8269146 C7.625731,13.0323152 7.96725147,13.006345 8.1754386,12.7702523 L12.4538012,7.42039251 L12.3345029,8.54891545 C12.3345029,8.88652797 12.5894737,9.15803453 12.9052632,9.15803453 C13.2210526,9.15803453 13.4760234,8.88416703 13.4760234,8.54891545 L13.7614035,5.86690275 C13.7684211,5.82912793 13.7730994,5.78899217 13.7730994,5.74885643 L13.7730994,5.74413457 L13.7730994,5.74177365 L13.7730994,5.73941271 C13.7730994,5.40180019 13.5181287,5.13029363 13.2023392,5.13029363 L10.5754386,5.44901873 C10.2596491,5.44901873 10.0046784,5.72288623 10.0046784,6.05813781 C10.0046784,6.39575033 10.2596491,6.66725689 10.5754386,6.66725689 L11.6491228,6.53740593 L7.70292398,11.5189612 L6.21520468,10.206286 C6.09824561,10.1024052 5.94619884,10.0528257 5.79415205,10.0693522 C5.64210526,10.0835178 5.50409358,10.1661502 5.40584796,10.2936402 L2.08421053,14.6920466 C2.04912281,14.7392652 1.99532163,14.7675963 1.93684211,14.7675963 L1.81286551,14.7675963 C1.44795323,14.7675963 1.15321639,14.453593 1.15321639,14.0640401 L1.15321639,1.93359894 C1.15321639,1.54404604 1.44795323,1.2300428 1.81286551,1.2300428 L14.1894737,1.2300428 C14.554386,1.2300428 14.8491228,1.54404604 14.8491228,1.93359894 L14.8491228,14.0640401 C14.8491228,14.453593 14.554386,14.7675963 14.1894737,14.7675963 L8.2502924,14.7675963 C7.93216375,14.7675963 7.67485381,15.0438247 7.67485381,15.3837981 C7.67485381,15.7237716 7.93216375,16 8.2502924,16 L14.6830409,16 C15.4105263,16 16,15.3696326 16,14.5928877 L16,1.4071123 C16,0.630367419 15.4105263,0 14.6830409,0 Z" id="路径" fill="#000000" fill-rule="nonzero"></path>
                </g>
            </g>
        </g>
    </g>
</svg>