<?xml version="1.0" encoding="UTF-8"?>
<svg width="260px" height="260px" viewBox="0 0 260 260" version="1.1" xmlns="http://www.w3.org/2000/svg" xmlns:xlink="http://www.w3.org/1999/xlink">
    <title>没权限</title>
    <defs>
        <linearGradient x1="50%" y1="0%" x2="50%" y2="92.1298574%" id="linearGradient-1">
            <stop stop-color="#E2EDFF" offset="0%"></stop>
            <stop stop-color="#FFFFFF" stop-opacity="0" offset="100%"></stop>
        </linearGradient>
        <linearGradient x1="67.4554762%" y1="48.218038%" x2="73.0360423%" y2="52.3816979%" id="linearGradient-2">
            <stop stop-color="#2B68CF" stop-opacity="0" offset="0%"></stop>
            <stop stop-color="#6FA5FF" offset="100%"></stop>
        </linearGradient>
        <linearGradient x1="13.5369246%" y1="50%" x2="83.31541%" y2="61.671781%" id="linearGradient-3">
            <stop stop-color="#2B68CF" stop-opacity="0" offset="0%"></stop>
            <stop stop-color="#6FA5FF" offset="100%"></stop>
        </linearGradient>
        <linearGradient x1="50%" y1="99.9630524%" x2="50%" y2="7.10542736e-13%" id="linearGradient-4">
            <stop stop-color="#7EAEFF" offset="0.0184755068%"></stop>
            <stop stop-color="#D4E4FF" offset="100%"></stop>
        </linearGradient>
        <linearGradient x1="50%" y1="91.1105935%" x2="50%" y2="8.16431795%" id="linearGradient-5">
            <stop stop-color="#C1D8FF" offset="0.0184755068%"></stop>
            <stop stop-color="#EAF2FF" offset="100%"></stop>
        </linearGradient>
        <linearGradient x1="50%" y1="99.9630524%" x2="50%" y2="7.10542736e-13%" id="linearGradient-6">
            <stop stop-color="#7EAEFF" offset="0.0184755068%"></stop>
            <stop stop-color="#D4E4FF" offset="100%"></stop>
        </linearGradient>
        <linearGradient x1="50%" y1="91.1105935%" x2="50%" y2="8.16431795%" id="linearGradient-7">
            <stop stop-color="#C1D8FF" offset="0.0184755068%"></stop>
            <stop stop-color="#EAF2FF" offset="100%"></stop>
        </linearGradient>
        <linearGradient x1="0.0565569275%" y1="49.8869551%" x2="99.7262813%" y2="49.8869551%" id="linearGradient-8">
            <stop stop-color="#FFF7ED" offset="0%"></stop>
            <stop stop-color="#FFEBD6" offset="100%"></stop>
        </linearGradient>
        <linearGradient x1="100%" y1="50%" x2="0%" y2="50%" id="linearGradient-9">
            <stop stop-color="#8BB7FF" offset="0%"></stop>
            <stop stop-color="#3480FF" offset="100%"></stop>
            <stop stop-color="#3480FF" offset="100%"></stop>
        </linearGradient>
        <linearGradient x1="100%" y1="50%" x2="0%" y2="50%" id="linearGradient-10">
            <stop stop-color="#8BB7FF" offset="0%"></stop>
            <stop stop-color="#B7D2FF" offset="100%"></stop>
            <stop stop-color="#3480FF" offset="100%"></stop>
        </linearGradient>
        <linearGradient x1="29.0542846%" y1="56.2035898%" x2="72.1872444%" y2="130.967149%" id="linearGradient-11">
            <stop stop-color="#494983" offset="0%"></stop>
            <stop stop-color="#272557" offset="100%"></stop>
        </linearGradient>
        <linearGradient x1="100%" y1="50.2353757%" x2="0.523778384%" y2="50.2353757%" id="linearGradient-12">
            <stop stop-color="#1F1E4A" offset="0%"></stop>
            <stop stop-color="#424677" offset="100%"></stop>
        </linearGradient>
        <linearGradient x1="100%" y1="50%" x2="0%" y2="50%" id="linearGradient-13">
            <stop stop-color="#8BB7FF" offset="0%"></stop>
            <stop stop-color="#3480FF" offset="100%"></stop>
            <stop stop-color="#3480FF" offset="100%"></stop>
        </linearGradient>
        <linearGradient x1="19463.6191%" y1="50.1407064%" x2="19563.4414%" y2="50.1407064%" id="linearGradient-14">
            <stop stop-color="#1F1E4A" offset="0%"></stop>
            <stop stop-color="#424677" offset="100%"></stop>
        </linearGradient>
        <linearGradient x1="1.12999924%" y1="50.0100444%" x2="100.031335%" y2="50.0100444%" id="linearGradient-15">
            <stop stop-color="#FFC100" offset="0%"></stop>
            <stop stop-color="#FF4444" offset="100%"></stop>
        </linearGradient>
        <linearGradient x1="29.0542846%" y1="56.2035898%" x2="72.1872444%" y2="130.967149%" id="linearGradient-16">
            <stop stop-color="#7575A2" offset="0%"></stop>
            <stop stop-color="#100E3F" offset="100%"></stop>
        </linearGradient>
        <linearGradient x1="29.0542846%" y1="51.6389993%" x2="72.1872444%" y2="71.3916632%" id="linearGradient-17">
            <stop stop-color="#7575A2" offset="0%"></stop>
            <stop stop-color="#100E3F" offset="100%"></stop>
        </linearGradient>
        <linearGradient x1="100%" y1="50%" x2="0%" y2="50%" id="linearGradient-18">
            <stop stop-color="#8BB7FF" offset="0%"></stop>
            <stop stop-color="#B7D2FF" offset="100%"></stop>
            <stop stop-color="#3480FF" offset="100%"></stop>
        </linearGradient>
        <linearGradient x1="29.0542846%" y1="50.9540315%" x2="72.1872444%" y2="62.4516954%" id="linearGradient-19">
            <stop stop-color="#7575A2" offset="0%"></stop>
            <stop stop-color="#100E3F" offset="100%"></stop>
        </linearGradient>
        <linearGradient x1="1.12999924%" y1="50.0100444%" x2="100.031335%" y2="50.0100444%" id="linearGradient-20">
            <stop stop-color="#FFD768" offset="0%"></stop>
            <stop stop-color="#FF938D" offset="100%"></stop>
        </linearGradient>
    </defs>
    <g id="页面-1" stroke="none" stroke-width="1" fill="none" fill-rule="evenodd">
        <g id="无权限" transform="translate(-894.000000, -341.000000)">
            <g id="没权限" transform="translate(894.000000, 341.000000)">
                <rect id="矩形备份-18" fill="#E95252" fill-rule="nonzero" opacity="0" x="0" y="0" width="260" height="260"></rect>
                <g id="编组备份-3" transform="translate(0.487811, 43.000000)">
                    <path d="M259.024379,167.577661 C259.024379,132.430474 201.039796,103.93805 129.512189,103.93805 C57.9845823,103.93805 -5.68434189e-14,132.430474 -5.68434189e-14,167.577661 C-5.68434189e-14,202.724847 259.024379,202.724847 259.024379,167.577661 Z" id="椭圆形备份" fill="url(#linearGradient-1)" fill-rule="nonzero"></path>
                    <g id="12_权限" transform="translate(42.512189, 0.000000)" fill-rule="nonzero">
                        <g id="编组">
                            <g>
                                <polygon id="路径" fill="url(#linearGradient-2)" points="114.29 134.75 6.05 134.75 0.385 109.89 90.31 109.89"></polygon>
                                <polygon id="路径" fill="url(#linearGradient-3)" points="149.435 136.4 125.393281 136.4 124.135 123.2 144.108684 123.2"></polygon>
                                <g transform="translate(31.350000, 0.000000)" id="形状">
                                    <path d="M80.96,49.665 L76.725,49.665 L76.725,31.625 C76.725,14.08 63.58,0.11 47.025,0.11 C30.47,0.11 17.27,14.135 17.27,31.68 L17.27,49.72 L13.035,49.72 C5.83,49.72 0.275,55.55 0.275,63.25 L0.275,121.77 C0.275,129.415 5.775,135.3 13.035,135.3 L80.96,135.3 C88.165,135.3 93.72,129.47 93.72,121.77 L93.72,63.14 C93.665,55.55 88.165,49.665 80.96,49.665 L80.96,49.665 Z M51.205,93.335 L51.205,103.675 C51.205,106.37 49.5,108.185 46.97,108.185 C44.44,108.185 42.735,106.37 42.735,103.675 L42.735,93.335 C40.205,92.015 38.5,88.825 38.5,85.69 C38.5,80.74 42.295,76.67 47.025,76.67 C51.755,76.67 55.55,80.685 55.55,85.69 C55.44,88.825 53.735,91.96 51.205,93.335 L51.205,93.335 Z M68.2,49.665 L25.74,49.665 L25.74,31.625 C25.74,18.975 35.09,9.13 46.97,9.13 C58.85,9.13 68.2,19.03 68.2,31.625 C68.2,31.68 68.2,49.665 68.2,49.665 L68.2,49.665 Z" fill="url(#linearGradient-4)"></path>
                                    <path d="M83.985,52.415 L79.86,52.415 L79.86,34.98 C79.86,17.985 67.155,4.51 51.095,4.51 C35.09,4.51 22.275,18.04 22.275,35.035 L22.275,52.47 L18.15,52.47 C11.165,52.47 5.83,58.08 5.83,65.56 L5.83,122.21 C5.83,129.58 11.165,135.3 18.15,135.3 L83.875,135.3 C90.86,135.3 96.1954258,129.69 96.1954258,122.21 L96.1954258,65.505 C96.25,58.135 90.97,52.415 83.985,52.415 L83.985,52.415 Z M55.165,94.71 L55.165,104.72 C55.165,107.36 53.515,109.065 51.04,109.065 C48.565,109.065 46.915,107.305 46.915,104.72 L46.915,94.71 C44.44,93.445 42.79,90.365 42.79,87.34 C42.79,82.555 46.475,78.595 51.04,78.595 C55.605,78.595 59.29,82.5 59.29,87.34 C59.29,90.365 57.64,93.335 55.165,94.71 L55.165,94.71 Z M71.61,52.415 L30.525,52.415 L30.525,34.98 C30.525,22.77 39.6,13.255 51.04,13.255 C62.48,13.255 71.555,22.825 71.555,34.98 C71.61,35.035 71.61,52.415 71.61,52.415 L71.61,52.415 Z" fill="url(#linearGradient-5)"></path>
                                </g>
                            </g>
                            <g transform="translate(116.050000, 45.100000)" id="形状">
                                <path d="M23.87,0.055 C20.405,0.22 18.7,1.98 18.865,5.5 L18.975,8.58 L16.83,8.69 C16.775,8.69 16.72,8.69 16.665,8.69 C13.805,8.855 11.605,11.33 11.77,14.19 C11.935,17.05 14.41,19.25 17.27,19.085 L19.415,18.975 L19.58,23.32 L12.21,23.595 C9.405,23.76 7.205,26.125 7.26,28.93 C7.315,31.79 9.735,34.1 12.595,34.045 L19.965,33.77 L20.185,39.875 C15.345,41.03 10.835,43.615 7.205,47.52 C-2.585,58.135 -1.925,74.69 8.69,84.48 C19.305,94.27 35.86,93.61 45.65,82.995 C55.44,72.38 54.78,55.825 44.165,46.035 C40.26,42.405 35.53,40.26 30.635,39.435 L29.26,5.005 C29.205,1.54 27.39,-0.11 23.87,0.055 Z M34.155,72.38 C30.25,76.615 23.595,76.89 19.36,72.985 C15.125,69.08 14.85,62.425 18.755,58.19 C22.66,53.955 29.315,53.68 33.55,57.585 C37.84,61.49 38.115,68.09 34.155,72.38 Z" fill="url(#linearGradient-6)"></path>
                                <path d="M27.17,0.605 C23.705,0.77 22,2.53 22.165,6.05 L22.275,9.13 L20.13,9.24 C20.075,9.24 20.02,9.24 19.965,9.24 C17.105,9.405 14.905,11.88 15.07,14.74 C15.235,17.6 17.71,19.8 20.57,19.635 L22.715,19.525 L22.88,23.87 L15.51,24.145 C12.705,24.31 10.505,26.675 10.56,29.48 C10.615,32.34 13.035,34.65 15.895,34.595 L23.265,34.32 L23.485,40.425 C18.645,41.58 14.135,44.165 10.505,48.07 C0.715,58.685 1.375,75.24 11.99,85.03 C22.605,94.82 39.16,94.16 48.95,83.545 C58.74,72.93 58.08,56.375 47.465,46.585 C43.56,42.955 38.83,40.81 33.935,39.985 L32.56,5.555 C32.45,2.145 30.635,0.495 27.17,0.605 Z M37.455,72.93 C33.55,77.165 26.895,77.44 22.66,73.535 C18.425,69.63 18.15,62.975 22.055,58.74 C25.96,54.505 32.615,54.23 36.85,58.135 C41.085,62.095 41.36,68.695 37.455,72.93 Z" fill="url(#linearGradient-7)"></path>
                            </g>
                        </g>
                    </g>
                    <g id="树" opacity="0.8" transform="translate(223.512189, 116.000000)">
                        <g id="树2" transform="translate(0.000000, 0.000000)">
                            <line x1="7.24137931" y1="18.3970177" x2="7.24137931" y2="27.5302889" id="直线" stroke="#96BDFF" stroke-width="2.75862069" stroke-linecap="round"></line>
                            <path d="M7.23871634,0 C1.74940066,5.90230844 -0.617891883,10.3911032 0.13683875,13.4663844 C1.2689347,18.0793061 5.7742649,18.7885108 6.88783565,18.7885108 C8.00140641,18.7885108 14.4827586,18.8760186 14.4827586,12.7275714 C14.4827586,8.62860651 12.0680779,4.38608274 7.23871634,0 Z" id="路径-15" fill="#D5E4FF" fill-rule="nonzero"></path>
                        </g>
                        <g id="树3" transform="translate(24.000000, 17.000000)">
                            <line x1="5.05747126" y1="13.3405172" x2="5.05747126" y2="20.4525862" id="直线" stroke="#96BDFF" stroke-width="2.75862069" stroke-linecap="round"></line>
                            <path d="M5.39265219,0 C1.30325721,4.3330439 -0.460313107,7.62838931 0.101941249,9.88603614 C0.945322778,13.2725065 4.3016746,13.7931528 5.13125534,13.7931528 C5.96083609,13.7931528 10.789272,13.8573946 10.789272,9.34365359 C10.789272,6.33449288 8.99039876,3.21994169 5.39265219,0 Z" id="路径-15" fill="#D5E4FF" fill-rule="nonzero"></path>
                        </g>
                    </g>
                </g>
                <g id="编组-2" transform="translate(33.000000, 136.000000) scale(-1, 1) translate(-33.000000, -136.000000) translate(0.000000, 84.000000)">
                    <path d="M6.32929531,20.8830745 L6.32929531,20.8830745 C6.32929531,20.3332516 6.42154883,19.5281538 6.42154883,19.5281538 L6.57837982,18.9979674 C6.6798587,18.5561454 6.76288687,18.6837829 6.78133758,18.6837829 C7.28873196,18.6837829 7.12267562,19.6656095 7.53781648,20.7358005 C7.6322772,20.9576554 7.74333897,21.1710715 7.86992917,21.3739879 L8.35887285,21.6685358 C8.46035173,21.7372637 9.43823909,26.4205767 8.79246441,25.6645702 C7.85787033,24.6744324 6.60488047,24.0989134 5.28683048,24.0543745 C4.59356904,24.0793387 3.90438996,24.1780121 3.22957688,24.3489225 C2.5039716,24.6040557 1.76055328,24.7977515 1.00626693,24.9282002 C1.00626693,24.7318349 1.20922469,24.6041975 1.34760498,24.5158331 C1.86707445,24.1518253 2.42045117,23.8458385 2.99894307,23.6027343 L3.58014027,23.3769142 L3.87535155,23.2492767 L3.55246421,23.298368 C3.34950646,23.298368 3.14654871,23.406369 2.94359095,23.4260055 C2.34394304,23.4849151 0.646478188,24.034738 0.388168319,23.995465 C0.323590852,23.995465 0.139083802,23.995465 0.157534507,23.848191 C0.175985212,23.700917 1.37528103,23.111821 1.70739372,22.9940018 C2.3900698,22.7681817 3.13732335,22.4834519 3.33105576,22.4049058 C3.33105576,22.4049058 3.5155628,22.3558145 3.52478816,22.3263597 C3.53401351,22.2969049 3.35873181,22.3263597 3.34950646,22.3263597 C3.17422476,22.3263597 -0.0546485994,22.6012711 0.000703515377,22.4932702 C0.0560556302,22.3852693 0.452745786,22.1201761 0.711055655,22.0219934 C1.39149423,21.7992726 2.09455719,21.6641264 2.80521066,21.6194445 L3.52478816,21.5212619 C3.52478816,21.5212619 3.77387267,21.5212619 3.79232338,21.4623523 C3.81077408,21.4034427 3.64471774,21.4623523 3.61704168,21.4623523 C3.58936562,21.4623523 3.28492899,21.4623523 3.13732335,21.4623523 C2.55994622,21.4181794 1.98033423,21.4181794 1.40295709,21.4623523 C1.18154863,21.4623523 0.563450016,21.5310801 0.554224663,21.4623523 C0.498872548,21.1383495 2.84211207,20.863438 3.3218304,20.863438 C4.32335548,20.7894571 5.32869851,20.7960212 6.32929531,20.8830745 L6.32929531,20.8830745 Z" id="路径" fill="#FDDCBD"></path>
                    <path d="M27.0237353,18.0229885 C23.7424335,20.8661388 19.4404943,29.575656 19.4404943,29.575656 C19.4404943,29.575656 17.5327607,27.9740146 15.6250271,26.7325056 C10.7507677,23.3302024 7.36454056,20.4965293 6.50606044,21.8328099 C5.38049762,23.5576545 18.2958541,35.5936575 21.5771559,33.9635846 C25.7073991,28.9880716 30.9250505,24.8749808 30.8965517,21.5579721 C30.9059732,19.9847622 27.0237353,18.0229885 27.0237353,18.0229885 Z" id="路径" fill="#FDDCBD"></path>
                    <path d="M58.5395636,21.4732623 L58.5395636,21.4732623 C58.5126489,21.0262613 58.4629198,20.5810559 58.3905858,20.1395209 C58.325408,19.9462251 58.2136746,19.6562813 58.2043635,19.6272869 C58.083319,19.202036 58.0088301,19.3276783 57.9808967,19.3276783 C57.4780966,19.3276783 57.6829411,20.2941576 57.3104965,21.3766144 C57.2302059,21.604445 57.130492,21.8243855 57.0125408,22.0338203 C56.8449408,22.1304682 56.6773407,22.2367809 56.5283629,22.3430936 C56.379385,22.4494064 55.5972514,27.0691772 56.2676517,26.3056586 C57.1609301,25.2782261 58.4016643,24.6481426 59.7313863,24.5466664 C60.4340312,24.5301294 61.1363637,24.5916903 61.826387,24.7302974 C62.5735497,24.9483105 63.3364281,25.1034496 64.1076101,25.1942075 C64.1076101,25.0105764 63.8748322,24.8849341 63.7351655,24.8076158 C63.197782,24.4700367 62.626398,24.1945588 62.0312315,23.9861084 L61.4260091,23.7928125 L61.1280534,23.676835 L61.4539424,23.676835 C61.658787,23.676835 61.8729426,23.7638181 62.0777871,23.7734829 C62.6830096,23.7734829 64.424188,24.2567226 64.6755881,24.2083986 C64.750077,24.2083986 64.9362993,24.2083986 64.9083659,24.0537619 C64.8804326,23.8991252 63.6513655,23.3772264 63.3068542,23.2902433 C62.5992095,23.0969475 61.8356981,22.8456629 61.6401647,22.7876741 C61.6401647,22.7876741 61.4539424,22.7876741 61.4353202,22.7200205 C61.416698,22.652367 61.6122314,22.7200205 61.6215425,22.7200205 C61.7891426,22.7200205 65.0666549,22.8263333 65.0107882,22.7200205 C64.8804326,22.4687359 64.5359213,22.372088 64.265899,22.2851049 C63.5673997,22.1070206 62.852628,22.0065858 62.1336538,21.9854963 L61.4073869,21.9275076 C61.4073869,21.9275076 61.1466757,21.9275076 61.1280534,21.9275076 C61.1094312,21.9275076 61.2863424,21.9275076 61.3049646,21.9275076 C61.3235868,21.9275076 61.6401647,21.9275076 61.7891426,21.9275076 C62.3696525,21.8500665 62.9543476,21.8113279 63.5396321,21.81153 C63.77241,21.81153 64.3869435,21.81153 64.4055657,21.7438765 C64.4055657,21.4249383 62.0591649,21.2703017 61.6122314,21.2896312 C60.5849893,21.2690586 59.5577429,21.3304497 58.5395636,21.4732623 L58.5395636,21.4732623 Z" id="路径" fill="#FDDCBD"></path>
                    <path d="M39.4066178,17.3793103 C42.8216733,20.1184824 46.7423097,29.7911836 46.7423097,29.7911836 C46.7423097,29.7911836 48.8027901,28.4406197 50.5580142,27.0615226 C55.2608699,23.4283153 58.1894231,19.9758172 59.1433492,21.4214913 C60.3452961,23.1049408 46.7423097,36.8864001 44.5578189,33.6146113 C40.1983765,28.8591043 34.885008,25.6158485 34.7609976,22.2869936 C34.6369873,20.7366983 39.4066178,17.3793103 39.4066178,17.3793103 Z" id="路径" fill="#FDDCBD"></path>
                    <path d="M35.2600457,7.48011652 C35.2600457,5.61181434 34.7253284,3.85561028 33.3147812,3.12697243 C30.2355473,1.53891558 26.4556494,3.70614611 25.4415305,5.46235016 C24.897594,6.39650125 24.9897866,8.51702423 25.8656166,10.5628151 C26.471653,12.0190457 27.421399,13.3021653 28.6313955,14.2994195 C30.6688527,15.7006461 32.992107,13.851027 33.904814,12.8141193 C34.4207748,12.0866046 34.7760859,11.255048 34.9465907,10.3759849 C35.4783597,10.2526179 35.8852869,9.81820613 35.9791482,9.27368662 C36.1898435,8.57867366 35.8894069,7.82933122 35.2600457,7.48011652 Z" id="路径" fill="url(#linearGradient-8)" fill-rule="nonzero"></path>
                    <polygon id="路径" fill="url(#linearGradient-9)" fill-rule="nonzero" points="22.972831 47.3356477 21.8850575 73.5066263 22.4336737 99.1264368 26.2266927 99.1264368 34.7586207 45.7011494"></polygon>
                    <g>
                        <path d="M6.32929531,20.8830745 L6.32929531,20.8830745 C6.32929531,20.3332516 6.42154883,19.5281538 6.42154883,19.5281538 L6.57837982,18.9979674 C6.6798587,18.5561454 6.76288687,18.6837829 6.78133758,18.6837829 C7.28873196,18.6837829 7.12267562,19.6656095 7.53781648,20.7358005 C7.6322772,20.9576554 7.74333897,21.1710715 7.86992917,21.3739879 L8.35887285,21.6685358 C8.46035173,21.7372637 9.43823909,26.4205767 8.79246441,25.6645702 C7.85787033,24.6744324 6.60488047,24.0989134 5.28683048,24.0543745 C4.59356904,24.0793387 3.90438996,24.1780121 3.22957688,24.3489225 C2.5039716,24.6040557 1.76055328,24.7977515 1.00626693,24.9282002 C1.00626693,24.7318349 1.20922469,24.6041975 1.34760498,24.5158331 C1.86707445,24.1518253 2.42045117,23.8458385 2.99894307,23.6027343 L3.58014027,23.3769142 L3.87535155,23.2492767 L3.55246421,23.298368 C3.34950646,23.298368 3.14654871,23.406369 2.94359095,23.4260055 C2.34394304,23.4849151 0.646478188,24.034738 0.388168319,23.995465 C0.323590852,23.995465 0.139083802,23.995465 0.157534507,23.848191 C0.175985212,23.700917 1.37528103,23.111821 1.70739372,22.9940018 C2.3900698,22.7681817 3.13732335,22.4834519 3.33105576,22.4049058 C3.33105576,22.4049058 3.5155628,22.3558145 3.52478816,22.3263597 C3.53401351,22.2969049 3.35873181,22.3263597 3.34950646,22.3263597 C3.17422476,22.3263597 -0.0546485994,22.6012711 0.000703515377,22.4932702 C0.0560556302,22.3852693 0.452745786,22.1201761 0.711055655,22.0219934 C1.39149423,21.7992726 2.09455719,21.6641264 2.80521066,21.6194445 L3.52478816,21.5212619 C3.52478816,21.5212619 3.77387267,21.5212619 3.79232338,21.4623523 C3.81077408,21.4034427 3.64471774,21.4623523 3.61704168,21.4623523 C3.58936562,21.4623523 3.28492899,21.4623523 3.13732335,21.4623523 C2.55994622,21.4181794 1.98033423,21.4181794 1.40295709,21.4623523 C1.18154863,21.4623523 0.563450016,21.5310801 0.554224663,21.4623523 C0.498872548,21.1383495 2.84211207,20.863438 3.3218304,20.863438 C4.32335548,20.7894571 5.32869851,20.7960212 6.32929531,20.8830745 L6.32929531,20.8830745 Z" id="路径" fill="#FDDCBD"></path>
                        <path d="M27.0237353,18.0229885 C23.7424335,20.8661388 19.4404943,29.575656 19.4404943,29.575656 C19.4404943,29.575656 17.5327607,27.9740146 15.6250271,26.7325056 C10.7507677,23.3302024 7.36454056,20.4965293 6.50606044,21.8328099 C5.38049762,23.5576545 18.2958541,35.5936575 21.5771559,33.9635846 C25.7073991,28.9880716 30.9250505,24.8749808 30.8965517,21.5579721 C30.9059732,19.9847622 27.0237353,18.0229885 27.0237353,18.0229885 Z" id="路径" fill="#FDDCBD"></path>
                        <path d="M58.5395636,21.4732623 L58.5395636,21.4732623 C58.5126489,21.0262613 58.4629198,20.5810559 58.3905858,20.1395209 C58.325408,19.9462251 58.2136746,19.6562813 58.2043635,19.6272869 C58.083319,19.202036 58.0088301,19.3276783 57.9808967,19.3276783 C57.4780966,19.3276783 57.6829411,20.2941576 57.3104965,21.3766144 C57.2302059,21.604445 57.130492,21.8243855 57.0125408,22.0338203 C56.8449408,22.1304682 56.6773407,22.2367809 56.5283629,22.3430936 C56.379385,22.4494064 55.5972514,27.0691772 56.2676517,26.3056586 C57.1609301,25.2782261 58.4016643,24.6481426 59.7313863,24.5466664 C60.4340312,24.5301294 61.1363637,24.5916903 61.826387,24.7302974 C62.5735497,24.9483105 63.3364281,25.1034496 64.1076101,25.1942075 C64.1076101,25.0105764 63.8748322,24.8849341 63.7351655,24.8076158 C63.197782,24.4700367 62.626398,24.1945588 62.0312315,23.9861084 L61.4260091,23.7928125 L61.1280534,23.676835 L61.4539424,23.676835 C61.658787,23.676835 61.8729426,23.7638181 62.0777871,23.7734829 C62.6830096,23.7734829 64.424188,24.2567226 64.6755881,24.2083986 C64.750077,24.2083986 64.9362993,24.2083986 64.9083659,24.0537619 C64.8804326,23.8991252 63.6513655,23.3772264 63.3068542,23.2902433 C62.5992095,23.0969475 61.8356981,22.8456629 61.6401647,22.7876741 C61.6401647,22.7876741 61.4539424,22.7876741 61.4353202,22.7200205 C61.416698,22.652367 61.6122314,22.7200205 61.6215425,22.7200205 C61.7891426,22.7200205 65.0666549,22.8263333 65.0107882,22.7200205 C64.8804326,22.4687359 64.5359213,22.372088 64.265899,22.2851049 C63.5673997,22.1070206 62.852628,22.0065858 62.1336538,21.9854963 L61.4073869,21.9275076 C61.4073869,21.9275076 61.1466757,21.9275076 61.1280534,21.9275076 C61.1094312,21.9275076 61.2863424,21.9275076 61.3049646,21.9275076 C61.3235868,21.9275076 61.6401647,21.9275076 61.7891426,21.9275076 C62.3696525,21.8500665 62.9543476,21.8113279 63.5396321,21.81153 C63.77241,21.81153 64.3869435,21.81153 64.4055657,21.7438765 C64.4055657,21.4249383 62.0591649,21.2703017 61.6122314,21.2896312 C60.5849893,21.2690586 59.5577429,21.3304497 58.5395636,21.4732623 L58.5395636,21.4732623 Z" id="路径" fill="#FDDCBD"></path>
                        <path d="M39.4066178,17.3793103 C42.8216733,20.1184824 46.7423097,29.7911836 46.7423097,29.7911836 C46.7423097,29.7911836 48.8027901,28.4406197 50.5580142,27.0615226 C55.2608699,23.4283153 58.1894231,19.9758172 59.1433492,21.4214913 C60.3452961,23.1049408 46.7423097,36.8864001 44.5578189,33.6146113 C40.1983765,28.8591043 34.885008,25.6158485 34.7609976,22.2869936 C34.6369873,20.7366983 39.4066178,17.3793103 39.4066178,17.3793103 Z" id="路径" fill="#FDDCBD"></path>
                        <path d="M35.2600457,7.48011652 C35.2600457,5.61181434 34.7253284,3.85561028 33.3147812,3.12697243 C30.2355473,1.53891558 26.4556494,3.70614611 25.4415305,5.46235016 C24.897594,6.39650125 24.9897866,8.51702423 25.8656166,10.5628151 C26.471653,12.0190457 27.421399,13.3021653 28.6313955,14.2994195 C30.6688527,15.7006461 32.992107,13.851027 33.904814,12.8141193 C34.4207748,12.0866046 34.7760859,11.255048 34.9465907,10.3759849 C35.4783597,10.2526179 35.8852869,9.81820613 35.9791482,9.27368662 C36.1898435,8.57867366 35.8894069,7.82933122 35.2600457,7.48011652 Z" id="路径" fill="url(#linearGradient-8)" fill-rule="nonzero"></path>
                        <polygon id="路径" fill="url(#linearGradient-10)" fill-rule="nonzero" points="22.972831 47.3356477 21.8850575 73.5066263 22.4336737 99.1264368 26.2266927 99.1264368 34.7586207 45.7011494"></polygon>
                        <path d="M36.6896552,7.89679371 C36.6896552,9.60701716 36.0617019,10.6254648 34.9120645,10.9425287 C35.1767891,9.94149716 35.351373,8.91901289 35.4337487,7.88718571 C35.3644804,7.55953621 35.1418661,7.28457517 34.834778,7.14736995 C34.5131508,7.06503431 34.1730707,7.09209196 33.8686961,7.22423392 C32.9026142,5.54283446 32.110427,4.90870666 31.2312925,4.61085875 C30.1000559,4.19486579 28.8650468,4.14775458 27.7050937,4.4763468 C26.4825096,5.0930001 25.4132821,5.97258708 24.5749883,7.05128998 C24.0154117,6.38479624 23.7475089,5.52319787 23.8311053,4.65889874 C23.8489802,3.4994143 24.4374037,2.42234775 25.4058188,1.77649966 C26.7106031,0.860005291 28.2248523,0.28205633 29.8111522,0.0951001927 C31.5412562,-0.236602023 33.323783,0.31108626 34.564275,1.55551573 C35.9383026,3.38783648 36.6834406,5.61102818 36.6896552,7.89679371 L36.6896552,7.89679371 Z" id="头发" fill="url(#linearGradient-11)"></path>
                        <path d="M26.3908046,99.1450204 L26.3908046,102.341395 L17.3085085,103.341395 C17.0613105,103.369464 16.828847,103.222884 16.7573207,102.993843 C16.6857944,102.764802 16.795879,102.519501 17.0183393,102.412216 C18.6433534,101.29248 20.4954062,99.5136882 22.4541757,99.1264368 L26.3908046,99.1450204 Z" id="路径" fill="url(#linearGradient-12)" fill-rule="nonzero"></path>
                        <polyline id="路径" fill="url(#linearGradient-13)" fill-rule="nonzero" points="41.1954023 45.7011494 28.3218391 48.5246014 32.447859 72.2453747 37.3647788 100.413793 41.1954023 100.413793"></polyline>
                        <path d="M41.1954023,100.423121 L41.1954023,103.631913 L32.0815075,103.631913 C31.8438312,103.639373 31.6307145,103.492116 31.5623824,103.273214 C31.4940502,103.054313 31.5876291,102.818632 31.7903287,102.699125 C33.4238026,101.581719 35.281476,100.803425 37.2450773,100.413793 L41.1954023,100.423121 Z" id="路径" fill="url(#linearGradient-14)" fill-rule="nonzero"></path>
                        <path d="M46.3438631,27.1909901 C46.4193493,27.1909901 42.0505818,18.1261068 37.9837593,16.7824602 L37.7950437,16.6594503 C36.6394658,16.1294942 35.4312638,15.723514 34.1905746,15.4482759 C34.1905746,15.4482759 32.1807528,19.9901798 29.1613023,18.8641662 C28.0761872,18.3248151 28.7083847,16.2336468 28.7083847,16.2336468 L28.6140268,16.2904206 C26.5221061,16.3094699 24.5445677,17.2508347 23.2073232,18.8641662 C21.3889518,21.1535496 20.0621928,23.7951955 19.3103448,26.6232521 C20.5514031,28.3349583 21.9578579,29.9196856 23.5092683,31.3544021 C23.3111168,35.2339451 23.2261948,39.3878948 23.084658,41.8670174 C22.9808644,43.7594774 22.867635,45.576239 22.7072267,47.2889153 C28.7838709,49.7018018 34.2660608,47.0239709 40.4559345,46.2859115 C40.6183335,46.2804494 40.7756648,46.2278583 40.9088521,46.1345147 C41.1541824,45.9263441 41.1164393,45.5100029 41.0598246,45.1882847 C40.2828768,40.530245 39.8507958,35.8209258 39.7671223,31.09892 C40.3710124,32.2722452 40.7107006,33.0670784 40.7107006,33.0670784 C40.7107006,33.0670784 45.0983397,29.3862437 46.3438631,27.1909901 Z" id="路径" fill="url(#linearGradient-15)" fill-rule="nonzero"></path>
                    </g>
                    <path d="M34.9120645,10.9425287 C35.1767891,9.94149716 35.351373,8.91901289 35.4337487,7.88718571 C35.3644804,7.55953621 35.1418661,7.28457517 34.834778,7.14736995 C34.5131508,7.06503431 34.1730707,7.09209196 33.8686961,7.22423392 C32.9026142,5.54283446 32.110427,4.90870666 31.2312925,4.61085875 C30.1000559,4.19486579 28.8650468,4.14775458 27.7050937,4.4763468 C26.4825096,5.0930001 25.4132821,5.97258708 24.5749883,7.05128998 C24.0154117,6.38479624 23.7475089,5.52319787 23.8311053,4.65889874 C23.8489802,3.4994143 24.4374037,2.42234775 25.4058188,1.77649966 C26.7106031,0.860005291 28.2248523,0.28205633 29.8111522,0.0951001927 C31.5412562,-0.236602023 33.323783,0.31108626 34.564275,1.55551573 C35.9383026,3.38783648 36.6834406,5.61102818 36.6896552,7.89679371 C36.6896552,9.60701716 36.0617019,10.6254648 34.9120645,10.9425287 Z" id="头发" fill="url(#linearGradient-16)"></path>
                    <path d="M26.3908046,99.1450204 L26.3908046,102.341395 L17.3085085,103.341395 C17.0613105,103.369464 16.828847,103.222884 16.7573207,102.993843 C16.6857944,102.764802 16.795879,102.519501 17.0183393,102.412216 C18.6433534,101.29248 20.4954062,99.5136882 22.4541757,99.1264368 L26.3908046,99.1450204 Z" id="路径" fill="url(#linearGradient-17)"></path>
                    <polyline id="路径" fill="url(#linearGradient-18)" fill-rule="nonzero" points="41.1954023 45.7011494 28.3218391 48.5246014 32.447859 72.2453747 37.3647788 100.413793 41.1954023 100.413793"></polyline>
                    <path d="M41.1954023,100.423121 L41.1954023,103.631913 L32.0815075,103.631913 C31.8438312,103.639373 31.6307145,103.492116 31.5623824,103.273214 C31.4940502,103.054313 31.5876291,102.818632 31.7903287,102.699125 C33.4238026,101.581719 35.281476,100.803425 37.2450773,100.413793 L41.1954023,100.423121 Z" id="路径" fill="url(#linearGradient-19)"></path>
                    <path d="M46.3438631,27.1909901 C46.4193493,27.1909901 42.0505818,18.1261068 37.9837593,16.7824602 L37.7950437,16.6594503 C36.6394658,16.1294942 35.4312638,15.723514 34.1905746,15.4482759 C34.1905746,15.4482759 32.1807528,19.9901798 29.1613023,18.8641662 C28.0761872,18.3248151 28.7083847,16.2336468 28.7083847,16.2336468 L28.6140268,16.2904206 C26.5221061,16.3094699 24.5445677,17.2508347 23.2073232,18.8641662 C21.3889518,21.1535496 20.0621928,23.7951955 19.3103448,26.6232521 C20.5514031,28.3349583 21.9578579,29.9196856 23.5092683,31.3544021 C23.3111168,35.2339451 23.2261948,39.3878948 23.084658,41.8670174 C22.9808644,43.7594774 22.867635,45.576239 22.7072267,47.2889153 C28.7838709,49.7018018 34.2660608,47.0239709 40.4559345,46.2859115 C40.6183335,46.2804494 40.7756648,46.2278583 40.9088521,46.1345147 C41.1541824,45.9263441 41.1164393,45.5100029 41.0598246,45.1882847 C40.2828768,40.530245 39.8507958,35.8209258 39.7671223,31.09892 C40.3710124,32.2722452 40.7107006,33.0670784 40.7107006,33.0670784 C40.7107006,33.0670784 45.0983397,29.3862437 46.3438631,27.1909901 Z" id="路径" fill="url(#linearGradient-20)" fill-rule="nonzero"></path>
                </g>
            </g>
        </g>
    </g>
</svg>