<?xml version="1.0" encoding="UTF-8"?>
<svg width="40px" height="40px" viewBox="0 0 40 40" version="1.1" xmlns="http://www.w3.org/2000/svg" xmlns:xlink="http://www.w3.org/1999/xlink">
    <title>切片</title>
    <g id="v1.1" stroke="none" stroke-width="1" fill="none" fill-rule="evenodd">
        <g id="切图" transform="translate(-16.000000, -69.000000)">
            <g id="7.Icon/40/预警" transform="translate(16.000000, 69.000000)">
                <rect id="矩形" x="0" y="0" width="40" height="40"></rect>
                <g id="yujing" transform="translate(5.000000, 5.000000)" fill="#EA4646" fill-rule="nonzero">
                    <path d="M25.0411184,27.7796053 C25.7319079,27.7796053 26.1003289,28.1019737 26.1463816,28.7467105 L26.1513158,28.8898026 C26.1513158,29.6299342 25.78125,30 25.0411184,30 L5.05756579,30 C4.36677632,30 3.99835526,29.6776316 3.95230263,29.0328947 L3.94736842,28.8898026 C3.94736842,28.1496711 4.31743421,27.7796053 5.05756579,27.7796053 L25.0411184,27.7796053 Z M15.0493421,6.31578947 C17.5030308,6.31578947 19.8562229,7.29051353 21.5912428,9.02553348 C23.2508271,10.6851178 24.214791,12.9102886 24.2954767,15.2480003 L24.3009868,15.5674342 L24.3009868,25.1891447 C24.3009868,25.7614135 23.8679991,26.2325525 23.3117577,26.2928276 L23.1907895,26.2993421 L6.90789474,26.2993421 C6.33592105,26.2993421 5.86452632,25.8660789 5.80421579,25.3100579 L5.79769737,25.1891447 L5.79769737,15.5674342 C5.79769737,10.4578919 9.93979981,6.31578947 15.0493421,6.31578947 Z M14.8296655,11.7166888 L14.7592105,11.8179276 L14.7592105,11.8194079 L11.6462171,16.8330592 L11.5751645,16.9662829 C11.4216419,17.3098203 11.4525786,17.7077386 11.6573528,18.0234198 C11.8393744,18.3040253 12.1367245,18.4857001 12.4648291,18.5225152 L12.5891447,18.5294408 L15.0463816,18.5279605 L13.0776316,20.7542763 L12.9784539,20.8860197 C12.6623612,21.3735709 12.7756755,22.0223778 13.2383166,22.3739229 C13.66537,22.6984261 14.2567076,22.6683001 14.6480021,22.3194812 L14.7414474,22.2256579 L18.3414474,18.1549342 L18.4361842,18.0320724 C18.8949371,17.3467749 18.4544063,16.3960262 17.6250024,16.3146479 L17.5095395,16.3090461 L14.5860197,16.3075658 L16.6465461,12.9888158 L16.7220395,12.84375 C16.9542395,12.3096615 16.7342687,11.6869272 16.2181262,11.4171785 C15.738851,11.1666976 15.1554936,11.2996447 14.8296655,11.7166888 Z M29.8534876,8.8125 C29.9986214,9.07097963 30.0378573,9.37811327 29.9625618,9.66631864 C29.8872663,9.95452402 29.7036088,10.2001865 29.4520018,10.34925 L27.5555283,11.47425 C27.2165606,11.6784199 26.7971038,11.6803312 26.4563868,11.4792583 C26.1156699,11.2781855 25.9059348,10.9049588 25.906796,10.5012581 C25.9076624,10.0975574 26.1189927,9.72528178 26.4605668,9.52575 L28.3577702,8.40075001 C28.8814687,8.0901045 29.5511136,8.27444833 29.8534876,8.8125 Z M1.63632827,8.40075001 L3.53353165,9.52575 C4.05277733,9.8385065 4.22897307,10.5232279 3.92801842,11.0587811 C3.62706377,11.5943343 2.96180839,11.7799016 2.43857009,11.47425 L0.541366711,10.34925 C0.0221210329,10.0364935 -0.154074702,9.35177208 0.146879947,8.81621891 C0.447834597,8.28066574 1.11308998,8.09509843 1.63632827,8.40075001 Z M23.5742481,2.36100002 C23.8259293,2.51019153 24.0095742,2.75604601 24.0847405,3.04442152 C24.1599068,3.33279703 24.1204301,3.64004377 23.975004,3.89850001 L22.8800425,5.84700001 C22.6858384,6.19794464 22.3235028,6.41507238 21.9305813,6.4159626 C21.5376597,6.41684737 21.1743985,6.20135854 20.9786944,5.8512946 C20.7829904,5.50123066 20.7848506,5.07026673 20.9835691,4.72200001 L22.0785306,2.77275002 C22.3809047,2.23469834 23.0505495,2.05035452 23.5742481,2.36100002 Z M6.9661066,2.20378742 C7.35902818,2.20467765 7.7213637,2.42180539 7.91556781,2.77275002 L7.91556781,2.77350001 L9.01052937,4.72200001 C9.20924779,5.07026673 9.21110805,5.50123066 9.01540399,5.8512946 C8.81969992,6.20135854 8.45643874,6.41684737 8.06351716,6.4159626 C7.67059558,6.41507238 7.30826006,6.19794464 7.11405595,5.84700001 L6.01909439,3.89775002 C5.82037598,3.5494833 5.81851571,3.11851937 6.01421978,2.76845543 C6.20992384,2.41839149 6.57318502,2.20290266 6.9661066,2.20378742 Z M14.9970492,0 C15.6017798,0 16.0920108,0.503679656 16.0920108,1.125 L16.0920108,3.375 C16.0920108,3.99632034 15.6017798,4.5 14.9970492,4.5 C14.3923186,4.5 13.9020877,3.99632034 13.9020877,3.375 L13.9020877,1.125 C13.9020877,0.503679656 14.3923186,0 14.9970492,0 Z" id="形状结合"></path>
                </g>
            </g>
        </g>
    </g>
</svg>